<?xml version="1.0" encoding="utf-8"?>
<!-- Generator: Adobe Illustrator 15.0.0, SVG Export Plug-In . SVG Version: 6.00 Build 0)  -->
<!DOCTYPE svg PUBLIC "-//W3C//DTD SVG 1.1//EN" "http://www.w3.org/Graphics/SVG/1.1/DTD/svg11.dtd">
<svg version="1.1" id="Layer_1" xmlns="http://www.w3.org/2000/svg" xmlns:xlink="http://www.w3.org/1999/xlink" x="0px" y="0px"
	 width="407px" height="302.101px" viewBox="0 0 407 302.101" enable-background="new 0 0 407 302.101" xml:space="preserve">
<g>
	<g>
		
			<text transform="matrix(1 0 0 1 155.1592 70.5215)" fill="#FFFFFF" font-family="'Lora-Regular'" font-size="18" letter-spacing="5">FRIDAY</text>
		
			<text transform="matrix(1 0 0 1 141.2095 169.5215)" fill="#FFFFFF" font-family="'Lora-Regular'" font-size="18" letter-spacing="3">6 O’CLOCK</text>
		
			<text transform="matrix(1 0 0 1 58.5073 120.5215)" fill="#FFFFFF" font-family="'Lora-Regular'" font-size="18" letter-spacing="3">AUG</text>
		
			<text transform="matrix(1 0 0 1 293.2393 120.5215)" fill="#FFFFFF" font-family="'Lora-Regular'" font-size="18" letter-spacing="3">2016</text>
		
			<text transform="matrix(1 0 0 1 150.1553 138.5215)" fill="#FFFFFF" font-family="'Lora-Bold'" font-size="72" letter-spacing="12">26</text>
		<g>
			<path fill="#FFFFFF" d="M392.087,113.371c0,1.302,1.012,2.358,2.261,2.358c1.014,0,1.871-0.695,2.157-1.658h0.706
				c0,0-0.36-0.42,0-0.76c-0.344-0.399-0.125-0.84-0.125-0.84h-0.652c-0.336-0.856-1.146-1.464-2.086-1.464
				C393.099,111.008,392.087,112.065,392.087,113.371"/>
			<path fill="#FFFFFF" d="M382.689,115.441c0.989,0.031,1.799-0.422,2.339,0.06c0.406,0.36,0.105,0.916,0.198,1.051
				c0.131,0.255,0.555,0.089,0.555-0.573c-0.076-1.29-1.2-1.648-3.092-1.693c-1.184-0.027-1.469-0.414-1.529-0.673h0.104
				c1.883-0.042,9.078,0.042,9.078,0.042c0.42,0.512,1.086,0.165,1.132,0.384c0.046,0.217,0.007,0.359-0.599,0.677
				c-0.611,0.313-1.125,0.508-1.119,0.639c0.008,0.126,0.668,0.13,1.153-0.017c0.628-0.188,0.685-0.382,0.813-0.212
				c0.124,0.175,0.114,0.48-0.33,1.149c-0.406,0.608-0.651,0.862-0.594,0.946c0.059,0.082,0.668-0.151,0.989-0.511
				c0.321-0.36,0.497-0.557,0.497-1.237s-0.618-1.143-0.618-2.082v-0.05c0-0.939,0.618-1.398,0.618-2.079
				c0-0.682-0.176-0.88-0.497-1.24c-0.321-0.357-0.931-0.589-0.989-0.509c-0.058,0.084,0.188,0.336,0.594,0.944
				c0.444,0.667,0.454,0.977,0.33,1.146c-0.129,0.173-0.186-0.022-0.813-0.209c-0.485-0.149-1.146-0.141-1.153-0.015
				c-0.006,0.127,0.508,0.322,1.119,0.639c0.605,0.313,0.645,0.457,0.599,0.675c-0.046,0.219-0.712-0.129-1.132,0.38
				c0,0-7.195,0.088-9.078,0.047h-0.094c0.078-0.257,0.392-0.608,1.52-0.635c1.892-0.042,3.016-0.406,3.092-1.695
				c0-0.659-0.424-0.827-0.555-0.57c-0.093,0.137,0.208,0.688-0.198,1.053c-0.54,0.48-1.35,0.03-2.339,0.059
				c-0.921,0.025-2.008,0.613-2.086,1.777c-3.043-0.04-12.619-0.105-12.984-0.105c-0.398,0-0.619,0.203-0.619,0.364
				c0,0.158,0.221,0.365,0.619,0.365c0.365,0,9.936-0.069,12.981-0.109C380.652,114.814,381.756,115.412,382.689,115.441"/>
			<path fill="#FFFFFF" d="M370.882,125.474c0.6-0.062,0.479-0.581,0.099-0.563c-2.06,0.224-3.001-1.338-2.98-2.739
				c0.019-1.399,1.7-2.682,1.7-4.921c0-1.788-0.995-2.683-1.395-2.971c0.928,0.005,2.581,0.073,4.466,0.393v0.007
				c0,0,0.958,0.271,1.526,1.592c0.571,1.318,0.513,2.219,1.294,3.118c0.779,0.902,1.857,1.653,1.951,3.122
				c0.087,0.482,0.479,0.424,0.449-0.151c-0.031-0.566-0.33-3.118-1.591-4.948c-0.862-1.25-1.831-2.08-2.421-2.502
				c0.824,0.183,1.675,0.422,2.516,0.724c3.881,1.41,6.025,3.446,6.774,4.271c0.032,0.294,0.032,0.65-0.165,0.696
				c-0.346,0.08-0.635-0.13-0.821-0.608c-0.19-0.482-0.438,0.129-0.21,0.677c0.232,0.553-0.111,0.69-0.641,0.395
				c-0.531-0.302-0.881-0.803-0.951-0.481c-0.068,0.319,0.398,1.02,1.186,1.317c0.779,0.302,1.068,0.122,1.346-0.167
				c0.28-0.292,0.5-0.65,0.809-0.86c0.578-0.395,1.363-0.02,1.865-0.982c0.5-0.961,0.099-2.119-0.205-2.119
				c-0.297,0,0.085,1.719-0.447,1.86c-0.25,0.03-0.23-0.091-0.49-0.69c-0.262-0.601-0.633-0.622-0.691-0.552
				c-0.061,0.07,0.141,0.392,0.23,0.771s0.101,0.692-0.23,0.622c-0.076-0.016-0.152-0.041-0.222-0.069
				c-0.728-0.8-2.952-2.98-6.965-4.526c-4.356-1.681-9.138-1.382-9.185-1.375c-0.135,0.007-0.232,0.121-0.222,0.254
				c0.007,0.133,0.12,0.231,0.253,0.226c0.694,0.178,1.274,0.649,1.107,1.799c-0.172,1.173-1.502,2.482-1.383,5.6
				C367.359,124.813,370.278,125.533,370.882,125.474"/>
			<path fill="#FFFFFF" d="M383.236,124.636c0.734,0.975,2.198,1.117,3.273,0.309c1.068-0.806,1.348-2.251,0.613-3.228
				c-0.735-0.978-2.203-1.115-3.274-0.31C382.776,122.213,382.501,123.659,383.236,124.636"/>
			<path fill="#FFFFFF" d="M370.882,101.277c-0.604-0.061-3.522,0.659-3.644,3.781c-0.119,3.122,1.211,4.433,1.383,5.602
				c0.167,1.149-0.413,1.618-1.107,1.802c-0.133-0.012-0.246,0.091-0.253,0.224c-0.011,0.133,0.087,0.247,0.222,0.255
				c0.047,0.004,4.828,0.305,9.185-1.376c4.013-1.548,6.237-3.726,6.965-4.532c0.069-0.023,0.146-0.048,0.222-0.063
				c0.331-0.07,0.32,0.238,0.23,0.618c-0.09,0.382-0.291,0.702-0.23,0.77c0.059,0.074,0.43,0.053,0.691-0.549
				c0.26-0.601,0.24-0.721,0.49-0.686c0.532,0.134,0.15,1.856,0.447,1.856c0.304,0,0.705-1.161,0.205-2.121
				c-0.502-0.961-1.287-0.586-1.865-0.979c-0.309-0.208-0.528-0.569-0.809-0.858c-0.277-0.292-0.566-0.474-1.346-0.173
				c-0.787,0.299-1.254,1.003-1.186,1.324c0.07,0.319,0.42-0.186,0.951-0.482c0.529-0.303,0.873-0.161,0.641,0.39
				c-0.229,0.55,0.02,1.159,0.21,0.681c0.187-0.482,0.476-0.69,0.821-0.611c0.197,0.049,0.197,0.404,0.165,0.7
				c-0.749,0.823-2.894,2.86-6.774,4.267c-0.841,0.306-1.691,0.541-2.516,0.724c0.59-0.418,1.559-1.246,2.421-2.498
				c1.261-1.83,1.56-4.381,1.591-4.952c0.029-0.569-0.362-0.632-0.449-0.151c-0.094,1.474-1.172,2.22-1.951,3.122
				c-0.781,0.899-0.723,1.802-1.294,3.122c-0.568,1.319-1.526,1.592-1.526,1.592v0.005c-1.885,0.32-3.538,0.387-4.466,0.395
				c0.399-0.291,1.395-1.185,1.395-2.971c0-2.245-1.682-3.521-1.7-4.925c-0.021-1.398,0.921-2.961,2.98-2.737"/>
			<path fill="#FFFFFF" d="M383.236,102.112c-0.735,0.977-0.46,2.424,0.612,3.229c1.071,0.809,2.539,0.669,3.274-0.309
				c0.734-0.977,0.455-2.422-0.613-3.228"/>
		</g>
		<g>
			<path fill="#FFFFFF" d="M9.177,112.875c0-1.304-1.012-2.359-2.258-2.359c-1.015,0-1.875,0.696-2.161,1.659H4.056
				c0,0,0.359,0.418,0,0.759c0.339,0.4,0.119,0.841,0.119,0.841h0.654c0.337,0.856,1.146,1.462,2.09,1.462
				C8.166,115.236,9.177,114.181,9.177,112.875"/>
			<path fill="#FFFFFF" d="M18.575,110.805c-0.99-0.031-1.8,0.42-2.341-0.062c-0.405-0.358-0.104-0.914-0.195-1.049
				c-0.133-0.256-0.556-0.091-0.556,0.571c0.076,1.29,1.198,1.648,3.092,1.695c1.185,0.025,1.47,0.413,1.527,0.671H20
				c-1.88,0.043-9.079-0.041-9.079-0.041c-0.42-0.511-1.085-0.164-1.133-0.385c-0.043-0.215-0.006-0.357,0.6-0.675
				c0.61-0.313,1.124-0.508,1.121-0.639c-0.01-0.126-0.668-0.131-1.156,0.017c-0.625,0.188-0.683,0.382-0.812,0.212
				c-0.126-0.175-0.112-0.48,0.331-1.151c0.407-0.606,0.652-0.86,0.593-0.946c-0.061-0.08-0.667,0.153-0.991,0.513
				c-0.321,0.358-0.498,0.557-0.498,1.237c0,0.68,0.62,1.141,0.62,2.081v0.049c0,0.941-0.62,1.4-0.62,2.08
				c0,0.683,0.176,0.881,0.498,1.24c0.324,0.358,0.931,0.59,0.991,0.51c0.059-0.084-0.187-0.336-0.593-0.944
				c-0.443-0.669-0.457-0.979-0.331-1.146c0.129-0.173,0.187,0.022,0.812,0.207c0.487,0.151,1.146,0.143,1.156,0.017
				c0.003-0.128-0.511-0.324-1.121-0.639c-0.606-0.314-0.644-0.459-0.6-0.675c0.047-0.219,0.712,0.129,1.133-0.382
				c0,0,7.198-0.086,9.079-0.046h0.094c-0.078,0.258-0.392,0.607-1.519,0.636c-1.894,0.042-3.016,0.406-3.092,1.695
				c0,0.658,0.423,0.827,0.556,0.569c0.091-0.136-0.21-0.687,0.195-1.052c0.541-0.48,1.351-0.03,2.341-0.059
				c0.921-0.027,2.006-0.613,2.083-1.777c3.046,0.04,12.619,0.105,12.987,0.105c0.398,0,0.62-0.205,0.62-0.364
				c0-0.158-0.222-0.365-0.62-0.365c-0.368,0-9.934,0.069-12.983,0.109C20.61,111.432,19.508,110.834,18.575,110.805"/>
			<path fill="#FFFFFF" d="M30.383,100.771c-0.6,0.063-0.479,0.583-0.099,0.564c2.06-0.224,3.002,1.339,2.979,2.738
				c-0.017,1.4-1.697,2.684-1.697,4.922c0,1.786,0.992,2.682,1.395,2.971c-0.927-0.005-2.581-0.073-4.468-0.395v-0.005
				c0,0-0.959-0.271-1.527-1.592c-0.571-1.318-0.511-2.22-1.294-3.118c-0.778-0.902-1.858-1.653-1.949-3.122
				c-0.087-0.482-0.48-0.424-0.452,0.152c0.032,0.565,0.331,3.117,1.594,4.947c0.86,1.25,1.832,2.082,2.418,2.502
				c-0.825-0.184-1.675-0.42-2.514-0.725c-3.881-1.411-6.024-3.446-6.776-4.271c-0.032-0.295-0.03-0.652,0.168-0.696
				c0.343-0.08,0.632,0.13,0.82,0.61c0.191,0.48,0.437-0.131,0.212-0.681c-0.232-0.551,0.109-0.689,0.638-0.394
				c0.531,0.303,0.881,0.804,0.951,0.482c0.067-0.321-0.4-1.02-1.183-1.317c-0.779-0.303-1.068-0.124-1.347,0.165
				c-0.279,0.294-0.501,0.651-0.81,0.861c-0.578,0.394-1.361,0.022-1.862,0.983c-0.501,0.961-0.101,2.12,0.198,2.12
				c0.302,0-0.081-1.719,0.452-1.861c0.25-0.03,0.23,0.091,0.491,0.69c0.26,0.6,0.63,0.62,0.69,0.552
				c0.061-0.071-0.141-0.394-0.229-0.771c-0.092-0.38-0.103-0.692,0.229-0.624c0.074,0.018,0.151,0.042,0.222,0.071
				c0.726,0.8,2.947,2.98,6.963,4.528c4.358,1.679,9.139,1.378,9.186,1.373c0.133-0.007,0.232-0.121,0.222-0.254
				c-0.008-0.133-0.119-0.232-0.253-0.226c-0.696-0.176-1.274-0.651-1.106-1.8c0.172-1.171,1.501-2.481,1.381-5.599
				C33.904,101.434,30.986,100.711,30.383,100.771"/>
			<path fill="#FFFFFF" d="M18.027,101.61c-0.734-0.977-2.196-1.117-3.271-0.31c-1.072,0.807-1.351,2.252-0.613,3.229
				c0.732,0.978,2.199,1.115,3.275,0.309C18.486,104.033,18.765,102.587,18.027,101.61"/>
			<path fill="#FFFFFF" d="M30.383,124.969c0.603,0.06,3.521-0.659,3.643-3.781c0.12-3.122-1.209-4.433-1.381-5.604
				c-0.168-1.147,0.41-1.618,1.106-1.8c0.134,0.012,0.245-0.093,0.253-0.226c0.01-0.131-0.089-0.245-0.222-0.253
				c-0.047-0.004-4.828-0.307-9.186,1.376c-4.016,1.547-6.237,3.725-6.963,4.531c-0.07,0.023-0.148,0.049-0.222,0.064
				c-0.331,0.068-0.321-0.24-0.229-0.618c0.087-0.382,0.289-0.704,0.229-0.771c-0.061-0.073-0.43-0.054-0.69,0.548
				c-0.261,0.601-0.241,0.723-0.491,0.688c-0.533-0.135-0.15-1.856-0.452-1.856c-0.299,0-0.699,1.161-0.198,2.12
				c0.5,0.96,1.284,0.587,1.862,0.979c0.309,0.21,0.531,0.571,0.81,0.86c0.279,0.292,0.568,0.472,1.347,0.173
				c0.783-0.301,1.25-1.003,1.183-1.324c-0.07-0.319-0.42,0.185-0.951,0.482c-0.529,0.303-0.87,0.161-0.638-0.39
				c0.225-0.55-0.021-1.16-0.212-0.681c-0.188,0.482-0.477,0.69-0.82,0.609c-0.198-0.047-0.2-0.404-0.168-0.698
				c0.752-0.825,2.895-2.86,6.776-4.267c0.838-0.308,1.689-0.541,2.514-0.726c-0.586,0.418-1.558,1.248-2.418,2.5
				c-1.263,1.83-1.563,4.381-1.594,4.952c-0.029,0.569,0.364,0.63,0.452,0.149c0.091-1.473,1.171-2.22,1.949-3.12
				c0.783-0.899,0.723-1.802,1.294-3.122c0.568-1.321,1.527-1.592,1.527-1.592v-0.005c1.887-0.322,3.541-0.387,4.468-0.395
				c-0.403,0.29-1.395,1.185-1.395,2.971c0,2.244,1.68,3.521,1.697,4.925c0.023,1.397-0.919,2.959-2.979,2.737"/>
			<path fill="#FFFFFF" d="M18.027,124.133c0.738-0.976,0.458-2.423-0.61-3.229c-1.076-0.808-2.542-0.67-3.275,0.31
				c-0.738,0.977-0.459,2.421,0.613,3.228"/>
		</g>
		<line fill="none" stroke="#FFFFFF" stroke-width="3" stroke-miterlimit="10" x1="4" y1="143.021" x2="105" y2="143.021"/>
		<line fill="none" stroke="#FFFFFF" stroke-width="3" stroke-miterlimit="10" x1="294" y1="143.021" x2="395" y2="143.021"/>
		<line fill="none" stroke="#FFFFFF" stroke-width="3" stroke-miterlimit="10" x1="4" y1="83.021" x2="105" y2="83.021"/>
		<line fill="none" stroke="#FFFFFF" stroke-width="3" stroke-miterlimit="10" x1="294" y1="83.021" x2="395" y2="83.021"/>
		<rect x="1" y="196.521" fill="none" width="406" height="100"/>
		<text transform="matrix(1 0 0 1 26.875 208.6016)"><tspan x="0" y="0" fill="#FFFFFF" font-family="'Lora-Bold'" font-size="16">- AT THE BEAUTIFUL  SALISH LODGE &amp; SPA -</tspan><tspan x="110.02" y="31.2" fill="#FFFFFF" font-family="'Lora-Regular'" font-size="16">6501 Railroad Ave, </tspan><tspan x="91.359" y="52.399" fill="#FFFFFF" font-family="'Lora-Regular'" font-size="16">Snoqualmie, WA 98065</tspan></text>
		<path fill="#FFFFFF" d="M229.385,284.062c-0.447,0-0.828,0.224-0.99,0.541c-2.379-0.153-10.453-0.391-13.932,3.046
			c-2.604-1.607-5.641-1.228-8.018-0.226c-0.904-0.691-1.916-1.401-2.996-2.176c0,0,1.188-0.932,1.188-1.863
			c0-0.931-0.727-1.862-1.577-1.862c-0.846,0-1.572,0.932-1.572,1.862c0,0.932,1.186,1.863,1.186,1.863
			c-1.096,0.786-2.123,1.509-3.039,2.211c-2.388-1.029-5.466-1.435-8.098,0.19c-3.479-3.437-11.551-3.199-13.931-3.046
			c-0.165-0.317-0.547-0.541-0.991-0.541c-0.594,0-1.076,0.4-1.076,0.891s0.482,0.888,1.076,0.888c0.468,0,0.861-0.247,1.01-0.593
			h5.317c1.755,0,5.671,0.779,8.011,2.801c-4.174,3.122-2.993,7.199-0.728,7.87c2.178,0.646,5.428-2.86,2.143-7.293
			c0.182-0.118,0.369-0.229,0.567-0.328c1.78-0.891,3.852-1.196,6.097-0.363c-1.539,1.244-2.682,2.462-3.133,3.919
			c-0.668,2.149,0,5.506,3.303,5.76c0.064,0.004,0.121,0.003,0.184,0.006c0.024,3.297,1.484,4.482,3.839,4.482
			c1.824,0,3.373-1.641,3.373-4.478c0.109-0.004,0.211-0.002,0.322-0.011c3.305-0.254,3.971-3.61,3.305-5.76
			c-0.459-1.482-1.637-2.72-3.219-3.988c2.229-0.798,4.283-0.454,6.057,0.433c0.195,0.099,0.385,0.21,0.568,0.328
			c-3.287,4.433-0.037,7.938,2.143,7.293c2.262-0.671,3.445-4.748-0.73-7.87c2.34-2.021,6.258-2.801,8.012-2.801h5.316
			c0.148,0.346,0.543,0.593,1.012,0.593c0.594,0,1.074-0.397,1.074-0.888S229.979,284.062,229.385,284.062 M192.768,291.092
			c0.677,4.317-1.948,4.572-2.88,3.641c-0.92-0.92-0.183-3.969,1.971-5.73C192.319,289.611,192.643,290.305,192.768,291.092
			 M202.336,282.537c0.34-0.761,1.668-0.509,1.609,0.509c-0.084,1.439-1.015,1.778-1.015,1.778S201.859,283.613,202.336,282.537
			 M203.062,285.501c0,0,1.216,0.836,2.659,2.257c-1.176,0.591-2.139,1.317-2.721,1.979c-0.568-0.647-1.498-1.354-2.636-1.938
			C201.826,286.352,203.062,285.501,203.062,285.501 M202.846,293.124c-0.422,0-0.762,0.341-0.762,0.762
			c0,0.402,0.313,0.729,0.705,0.757c-0.141,0.736-0.666,2.212-2.551,2.497c-0.015-0.421,0.006-0.89,0.066-1.42
			c0.339-2.935,2.654-5.306,2.654-5.306s1.978,1.976,2.542,5.59c0.059,0.395,0.086,0.751,0.092,1.081
			c-1.78-0.417-2.191-1.975-2.284-2.599c0.181-0.14,0.3-0.355,0.3-0.601C203.608,293.465,203.266,293.124,202.846,293.124
			 M198.357,290.074c0.494-0.65,1.013-1.245,1.518-1.777c0.913,0.447,1.845,1.083,2.801,1.947c-1.27,0.932-3.106,2.992-3.274,6.718
			c-0.003,0.075-0.002,0.145-0.005,0.218C196.636,296.962,196.315,292.771,198.357,290.074 M203.128,300.406
			c-1.156,0-2.618-0.444-2.861-2.802c2.363-0.234,2.794-1.94,2.794-1.94s0.406,1.566,2.519,1.901
			C205.434,299.848,203.929,300.406,203.128,300.406 M207.771,290.074c2.072,2.74,1.707,7.023-1.184,7.11
			c-0.02-0.389-0.066-0.796-0.143-1.223c-0.721-3.854-3.092-5.802-3.092-5.802c0.961-0.873,1.903-1.507,2.819-1.946
			C206.703,288.767,207.252,289.389,207.771,290.074 M216.113,294.732c-0.932,0.932-3.559,0.677-2.881-3.641
			c0.123-0.787,0.451-1.48,0.91-2.09C216.295,290.764,217.033,293.813,216.113,294.732"/>
	</g>
	<rect y="1.521" fill="none" width="108" height="80"/>
	<text transform="matrix(1 0 0 1 41.7031 13.6016)"><tspan x="0" y="0" fill="#FFFFFF" font-family="'Lora-Regular'" font-size="16">We</tspan><tspan x="-34.191" y="19.2" fill="#FFFFFF" font-family="'Lora-Regular'" font-size="16">invite you to </tspan><tspan x="-37.52" y="38.399" fill="#FFFFFF" font-family="'Lora-Regular'" font-size="16">celebrate our</tspan></text>
	<rect x="290" y="1.521" fill="none" width="108" height="80"/>
	<text transform="matrix(1 0 0 1 312.1602 13.6016)"><tspan x="0" y="0" fill="#FFFFFF" font-family="'Lora-Regular'" font-size="16">wedding </tspan><tspan x="-16.863" y="19.2" fill="#FFFFFF" font-family="'Lora-Regular'" font-size="16">which will be </tspan><tspan x="4.109" y="38.399" fill="#FFFFFF" font-family="'Lora-Regular'" font-size="16">held on</tspan></text>
</g>
</svg>
