<?xml version="1.0" encoding="utf-8"?>
<!-- Generator: Adobe Illustrator 18.1.1, SVG Export Plug-In . SVG Version: 6.00 Build 0)  -->
<svg version="1.1" id="Layer_1" xmlns="http://www.w3.org/2000/svg" xmlns:xlink="http://www.w3.org/1999/xlink" x="0px" y="0px"
	 viewBox="0 0 134.6 84" enable-background="new 0 0 134.6 84" xml:space="preserve">
<g>
	<g>
		<g>
			<path fill="#403B56" d="M109.3,13c-5.5,0-10.5,1.8-14.7,4.7V0.4H0.1v64.3C0.1,75.4,8.8,84,19.4,84h55.8
				c10.7,0,19.3-8.7,19.3-19.3v-5.5c4.1,3,9.2,4.7,14.7,4.7c14,0,25.4-11.4,25.4-25.4C134.7,24.4,123.3,13,109.3,13z M109.3,52.7
				c-7.8,0-14.1-6.3-14.1-14.1c0-7.8,6.3-14.1,14.1-14.1c7.8,0,14.1,6.3,14.1,14.1C123.4,46.3,117.1,52.7,109.3,52.7z"/>
		</g>
		<g>
			<path fill="#FFFFFF" d="M109.2,13.5c-5.5-0.2-10.9,1.4-14.9,3.9c0-6.3,0-8.5-0.1-17.4C62.9,0,31.4,0,0,0c0,9.8,0,19.5,0,29.3
				c15.6,4.1,32.7,9,48.9,8.2c17-0.8,32.2-7.9,49.5-8.1c2.6-3.7,6.6-5.4,11-5c4.5,0.4,8.5,2.9,11,6.5c5.1,0,7.6-0.2,12.6-1.7
				C129,19.9,119.4,13.8,109.2,13.5z"/>
		</g>
	</g>
	<line fill="none" stroke="#403B56" stroke-miterlimit="10" x1="47.5" y1="0" x2="47.5" y2="42"/>
</g>
</svg>
