<?xml version="1.0" encoding="utf-8"?>
<!-- Generator: Adobe Illustrator 18.1.1, SVG Export Plug-In . SVG Version: 6.00 Build 0)  -->
<svg version="1.1" id="Layer_1" xmlns="http://www.w3.org/2000/svg" xmlns:xlink="http://www.w3.org/1999/xlink" x="0px" y="0px"
	 viewBox="0 0 776 521.4" enable-background="new 0 0 776 521.4" xml:space="preserve">
<g opacity="0.25">
	<g>
		<g>
			<path fill="#4C4C4C" d="M682.6,48.4c5.5-9.5,14.5-9.5,19.9,0l2.1,3.7c5.5,9.5,14.5,25.1,19.9,34.7l2.1,3.5
				c5.5,9.5,1,17.1-10,17.1h-4.1c-11,0-29,0-40,0h-4.1c-11,0-15.5-7.6-10-17.1l2.1-3.6c5.5-9.5,14.5-25.1,19.9-34.6L682.6,48.4z"/>
		</g>
		<g>
			<path fill="#4C4C4C" d="M729.6,41.4c5.5-9.5,14.5-9.5,19.9,0l2.1,3.7c5.5,9.5,14.5,25.1,19.9,34.7l2.1,3.5
				c5.5,9.5,1,17.1-10,17.1h-4.1c-11,0-29,0-40,0h-4.1c-11,0-15.5-7.6-10-17.1l2.1-3.6c5.5-9.5,14.5-25.1,19.9-34.6L729.6,41.4z"/>
		</g>
		<g>
			<path fill="#4C4C4C" d="M600.6,16.4c5.5-9.5,14.5-9.5,19.9,0l2.1,3.7c5.5,9.5,14.5,25.1,19.9,34.7l2.1,3.5
				c5.5,9.5,1,17.1-10,17.1h-4.1c-11,0-29,0-40,0h-4.1c-11,0-15.5-7.6-10-17.1l2.1-3.6c5.5-9.5,14.5-25.1,19.9-34.6L600.6,16.4z"/>
		</g>
		<g>
			<path fill="#4C4C4C" d="M634.6,24.4c5.5-9.5,14.5-9.5,19.9,0l6.7,11.7c5.5,9.5,14.5,25.1,19.9,34.7l6.7,11.5
				c5.5,9.5,1,17.1-10,17.1h-13.3c-11,0-29,0-40,0h-13.3c-11,0-15.5-7.6-10-17.1l6.7-11.6c5.5-9.5,14.5-25.1,19.9-34.6L634.6,24.4z"
				/>
		</g>
		<g>
			<path fill="#4C4C4C" d="M677.1,7.2c5.5-9.5,14.5-9.5,19.9,0l7.4,12.8c5.5,9.5,14.5,25.1,19.9,34.7l7.4,12.6
				c5.5,9.5,1,17.1-10,17.1h-14.6c-11,0-29,0-40,0h-14.6c-11,0-15.5-7.6-10-17.1l7.4-12.7c5.5-9.5,14.5-25.1,19.9-34.6L677.1,7.2z"
				/>
		</g>
		<g>
			<polygon fill="#FFFFFF" points="593.4,96.8 596.9,103.1 600.5,109.4 593.4,109.4 586.3,109.4 589.8,103.1 			"/>
			<polygon fill="#FFFFFF" points="593.4,101.2 597.9,108.8 602.4,116.4 593.4,116.4 584.3,116.4 588.8,108.8 			"/>
			<polygon fill="#FFFFFF" points="593.4,106.2 599.1,115.8 604.7,125.4 593.4,125.4 582,125.4 587.7,115.8 			"/>
			<rect x="592.1" y="124.4" fill="#FFFFFF" width="3" height="6"/>
		</g>
		<g>
			<polygon fill="#FFFFFF" points="574.4,51.8 577.9,58.1 581.5,64.4 574.4,64.4 567.3,64.4 570.8,58.1 			"/>
			<polygon fill="#FFFFFF" points="574.4,56.2 578.9,63.8 583.4,71.4 574.4,71.4 565.3,71.4 569.8,63.8 			"/>
			<polygon fill="#FFFFFF" points="574.4,61.2 580.1,70.8 585.7,80.4 574.4,80.4 563,80.4 568.7,70.8 			"/>
			<rect x="573.1" y="79.4" fill="#FFFFFF" width="3" height="6"/>
		</g>
		<g>
			<polygon fill="#FFFFFF" points="651.4,79.8 654.9,86.1 658.5,92.4 651.4,92.4 644.3,92.4 647.8,86.1 			"/>
			<polygon fill="#FFFFFF" points="651.4,84.2 655.9,91.8 660.4,99.4 651.4,99.4 642.3,99.4 646.8,91.8 			"/>
			<polygon fill="#FFFFFF" points="651.4,89.2 657.1,98.8 662.7,108.4 651.4,108.4 640,108.4 645.7,98.8 			"/>
			<rect x="650.1" y="107.4" fill="#FFFFFF" width="3" height="6"/>
		</g>
		<g>
			<polygon fill="#FFFFFF" points="698.4,105.8 701.9,112.1 705.5,118.4 698.4,118.4 691.3,118.4 694.8,112.1 			"/>
			<polygon fill="#FFFFFF" points="698.4,110.2 702.9,117.8 707.4,125.4 698.4,125.4 689.3,125.4 693.8,117.8 			"/>
			<polygon fill="#FFFFFF" points="698.4,115.2 704.1,124.8 709.7,134.4 698.4,134.4 687,134.4 692.7,124.8 			"/>
			<rect x="697.1" y="133.4" fill="#FFFFFF" width="3" height="6"/>
		</g>
		<g>
			<polygon fill="#FFFFFF" points="725.4,81.8 728.9,88.1 732.5,94.4 725.4,94.4 718.3,94.4 721.8,88.1 			"/>
			<polygon fill="#FFFFFF" points="725.4,86.2 729.9,93.8 734.4,101.4 725.4,101.4 716.3,101.4 720.8,93.8 			"/>
			<polygon fill="#FFFFFF" points="725.4,91.2 731.1,100.8 736.7,110.4 725.4,110.4 714,110.4 719.7,100.8 			"/>
			<rect x="724.1" y="109.4" fill="#FFFFFF" width="3" height="6"/>
		</g>
		<g>
			<polygon fill="#FFFFFF" points="645.4,118.8 648.9,125.1 652.5,131.4 645.4,131.4 638.3,131.4 641.8,125.1 			"/>
			<polygon fill="#FFFFFF" points="645.4,123.2 649.9,130.8 654.4,138.4 645.4,138.4 636.3,138.4 640.8,130.8 			"/>
			<polygon fill="#FFFFFF" points="645.4,128.2 651.1,137.8 656.7,147.4 645.4,147.4 634,147.4 639.7,137.8 			"/>
			<rect x="644.1" y="146.4" fill="#FFFFFF" width="3" height="6"/>
		</g>
		<g>
			<polygon fill="#FFFFFF" points="753.4,120.8 756.9,127.1 760.5,133.4 753.4,133.4 746.3,133.4 749.8,127.1 			"/>
			<polygon fill="#FFFFFF" points="753.4,125.2 757.9,132.8 762.4,140.4 753.4,140.4 744.3,140.4 748.8,132.8 			"/>
			<polygon fill="#FFFFFF" points="753.4,130.2 759.1,139.8 764.7,149.4 753.4,149.4 742,149.4 747.7,139.8 			"/>
			<rect x="752.1" y="148.4" fill="#FFFFFF" width="3" height="6"/>
		</g>
		<g>
			<polygon fill="#FFFFFF" points="531.4,92.8 534.9,99.1 538.5,105.4 531.4,105.4 524.3,105.4 527.8,99.1 			"/>
			<polygon fill="#FFFFFF" points="531.4,97.2 535.9,104.8 540.4,112.4 531.4,112.4 522.3,112.4 526.8,104.8 			"/>
			<polygon fill="#FFFFFF" points="531.4,102.2 537.1,111.8 542.7,121.4 531.4,121.4 520,121.4 525.7,111.8 			"/>
			<rect x="530.1" y="120.4" fill="#FFFFFF" width="3" height="6"/>
		</g>
		<g>
			<polygon fill="#FFFFFF" points="619.4,84.8 622.9,91.1 626.5,97.4 619.4,97.4 612.3,97.4 615.8,91.1 			"/>
			<polygon fill="#FFFFFF" points="619.4,89.2 623.9,96.8 628.4,104.4 619.4,104.4 610.3,104.4 614.8,96.8 			"/>
			<polygon fill="#FFFFFF" points="619.4,94.2 625.1,103.8 630.7,113.4 619.4,113.4 608,113.4 613.7,103.8 			"/>
			<rect x="618.1" y="112.4" fill="#FFFFFF" width="3" height="6"/>
		</g>
	</g>
	<g>
		<g>
			<path fill="#4C4C4C" d="M60.6,375.2c5.5-9.5,14.5-9.5,19.9,0L97.7,405c5.5,9.5,14.5,25.1,19.9,34.7l17.1,29.6
				c5.5,9.5,1,17.1-10,17.1H90.6c-11,0-29,0-40,0H16.5c-11,0-15.5-7.6-10-17.1l17.1-29.7c5.5-9.5,14.5-25.1,19.9-34.6L60.6,375.2z"
				/>
		</g>
		<g>
			<path fill="#4C4C4C" d="M191.6,391.4c5.5-9.5,14.5-9.5,19.9,0l2.1,3.7c5.5,9.5,14.5,25.1,19.9,34.7l2.1,3.5
				c5.5,9.5,1,17.1-10,17.1h-4.1c-11,0-29,0-40,0h-4.1c-11,0-15.5-7.6-10-17.1l2.1-3.6c5.5-9.5,14.5-25.1,19.9-34.6L191.6,391.4z"/>
		</g>
		<g>
			<path fill="#4C4C4C" d="M216.6,398.4c5.5-9.5,14.5-9.5,19.9,0l2.1,3.7c5.5,9.5,14.5,25.1,19.9,34.7l2.1,3.5
				c5.5,9.5,1,17.1-10,17.1h-4.1c-11,0-29,0-40,0h-4.1c-11,0-15.5-7.6-10-17.1l2.1-3.6c5.5-9.5,14.5-25.1,19.9-34.6L216.6,398.4z"/>
		</g>
		<g>
			<path fill="#4C4C4C" d="M93.1,373.2c5.5-9.5,14.5-9.5,19.9,0l7.4,12.8c5.5,9.5,14.5,25.1,19.9,34.7l7.4,12.6
				c5.5,9.5,1,17.1-10,17.1h-14.6c-11,0-29,0-40,0H68.5c-11,0-15.5-7.6-10-17.1l7.4-12.7c5.5-9.5,14.5-25.1,19.9-34.6L93.1,373.2z"
				/>
		</g>
		<g>
			<path fill="#4C4C4C" d="M123.1,395.2c5.5-9.5,14.5-9.5,19.9,0l7.4,12.8c5.5,9.5,14.5,25.1,19.9,34.7l7.4,12.6
				c5.5,9.5,1,17.1-10,17.1h-14.6c-11,0-29,0-40,0H98.5c-11,0-15.5-7.6-10-17.1l7.4-12.7c5.5-9.5,14.5-25.1,19.9-34.6L123.1,395.2z"
				/>
		</g>
		<g>
			<path fill="#4C4C4C" d="M154.1,409.2c5.5-9.5,14.5-9.5,19.9,0l7.4,12.8c5.5,9.5,14.5,25.1,19.9,34.7l7.4,12.6
				c5.5,9.5,1,17.1-10,17.1h-14.6c-11,0-29,0-40,0h-14.6c-11,0-15.5-7.6-10-17.1l7.4-12.7c5.5-9.5,14.5-25.1,19.9-34.6L154.1,409.2z
				"/>
		</g>
		<g>
			<polygon fill="#FFFFFF" points="244.4,439.8 247.9,446.1 251.5,452.4 244.4,452.4 237.3,452.4 240.8,446.1 			"/>
			<polygon fill="#FFFFFF" points="244.4,444.2 248.9,451.8 253.4,459.4 244.4,459.4 235.3,459.4 239.8,451.8 			"/>
			<polygon fill="#FFFFFF" points="244.4,449.2 250.1,458.8 255.7,468.4 244.4,468.4 233,468.4 238.7,458.8 			"/>
			<rect x="243.1" y="467.4" fill="#FFFFFF" width="3" height="6"/>
		</g>
		<g>
			<polygon fill="#FFFFFF" points="205.4,464.8 208.9,471.1 212.5,477.4 205.4,477.4 198.3,477.4 201.8,471.1 			"/>
			<polygon fill="#FFFFFF" points="205.4,469.2 209.9,476.8 214.4,484.4 205.4,484.4 196.3,484.4 200.8,476.8 			"/>
			<polygon fill="#FFFFFF" points="205.4,474.2 211.1,483.8 216.7,493.4 205.4,493.4 194,493.4 199.7,483.8 			"/>
			<rect x="204.1" y="492.4" fill="#FFFFFF" width="3" height="6"/>
		</g>
		<g>
			<polygon fill="#FFFFFF" points="236.4,474.8 239.9,481.1 243.5,487.4 236.4,487.4 229.3,487.4 232.8,481.1 			"/>
			<polygon fill="#FFFFFF" points="236.4,479.2 240.9,486.8 245.4,494.4 236.4,494.4 227.3,494.4 231.8,486.8 			"/>
			<polygon fill="#FFFFFF" points="236.4,484.2 242.1,493.8 247.7,503.4 236.4,503.4 225,503.4 230.7,493.8 			"/>
			<rect x="235.1" y="502.4" fill="#FFFFFF" width="3" height="6"/>
		</g>
		<g>
			<polygon fill="#FFFFFF" points="78.4,459.8 81.9,466.1 85.5,472.4 78.4,472.4 71.3,472.4 74.8,466.1 			"/>
			<polygon fill="#FFFFFF" points="78.4,464.2 82.9,471.8 87.4,479.4 78.4,479.4 69.3,479.4 73.8,471.8 			"/>
			<polygon fill="#FFFFFF" points="78.4,469.2 84.1,478.8 89.7,488.4 78.4,488.4 67,488.4 72.7,478.8 			"/>
			<rect x="77.1" y="487.4" fill="#FFFFFF" width="3" height="6"/>
		</g>
		<g>
			<polygon fill="#FFFFFF" points="51.4,471.8 54.9,478.1 58.5,484.4 51.4,484.4 44.3,484.4 47.8,478.1 			"/>
			<polygon fill="#FFFFFF" points="51.4,476.2 55.9,483.8 60.4,491.4 51.4,491.4 42.3,491.4 46.8,483.8 			"/>
			<polygon fill="#FFFFFF" points="51.4,481.2 57.1,490.8 62.7,500.4 51.4,500.4 40,500.4 45.7,490.8 			"/>
			<rect x="50.1" y="499.4" fill="#FFFFFF" width="3" height="6"/>
		</g>
		<g>
			<polygon fill="#FFFFFF" points="105.4,487.8 108.9,494.1 112.5,500.4 105.4,500.4 98.3,500.4 101.8,494.1 			"/>
			<polygon fill="#FFFFFF" points="105.4,492.2 109.9,499.8 114.4,507.4 105.4,507.4 96.3,507.4 100.8,499.8 			"/>
			<polygon fill="#FFFFFF" points="105.4,497.2 111.1,506.8 116.7,516.4 105.4,516.4 94,516.4 99.7,506.8 			"/>
			<rect x="104.1" y="515.4" fill="#FFFFFF" width="3" height="6"/>
		</g>
		<g>
			<polygon fill="#FFFFFF" points="173.4,458.8 176.9,465.1 180.5,471.4 173.4,471.4 166.3,471.4 169.8,465.1 			"/>
			<polygon fill="#FFFFFF" points="173.4,463.2 177.9,470.8 182.4,478.4 173.4,478.4 164.3,478.4 168.8,470.8 			"/>
			<polygon fill="#FFFFFF" points="173.4,468.2 179.1,477.8 184.7,487.4 173.4,487.4 162,487.4 167.7,477.8 			"/>
			<rect x="172.1" y="486.4" fill="#FFFFFF" width="3" height="6"/>
		</g>
		<g>
			<polygon fill="#FFFFFF" points="11.4,463.8 14.9,470.1 18.5,476.4 11.4,476.4 4.3,476.4 7.8,470.1 			"/>
			<polygon fill="#FFFFFF" points="11.4,468.2 15.9,475.8 20.4,483.4 11.4,483.4 2.3,483.4 6.8,475.8 			"/>
			<polygon fill="#FFFFFF" points="11.4,473.2 17.1,482.8 22.7,492.4 11.4,492.4 0,492.4 5.7,482.8 			"/>
			<rect x="10.1" y="491.4" fill="#FFFFFF" width="3" height="6"/>
		</g>
		<g>
			<polygon fill="#FFFFFF" points="140.4,473.8 143.9,480.1 147.5,486.4 140.4,486.4 133.3,486.4 136.8,480.1 			"/>
			<polygon fill="#FFFFFF" points="140.4,478.2 144.9,485.8 149.4,493.4 140.4,493.4 131.3,493.4 135.8,485.8 			"/>
			<polygon fill="#FFFFFF" points="140.4,483.2 146.1,492.8 151.7,502.4 140.4,502.4 129,502.4 134.7,492.8 			"/>
			<rect x="139.1" y="501.4" fill="#FFFFFF" width="3" height="6"/>
		</g>
	</g>
</g>
</svg>
