<?xml version="1.0" encoding="utf-8"?>
<!-- Generator: Adobe Illustrator 18.1.1, SVG Export Plug-In . SVG Version: 6.00 Build 0)  -->
<svg version="1.1" id="Layer_1" xmlns="http://www.w3.org/2000/svg" xmlns:xlink="http://www.w3.org/1999/xlink" x="0px" y="0px"
	 viewBox="0 0 97.6 14.4" enable-background="new 0 0 97.6 14.4" xml:space="preserve">
<g>
	<path fill-rule="evenodd" clip-rule="evenodd" fill="#FFFFFF" d="M8.9,2.7V4C7.6,4.6,6.5,5.1,6.5,5.1s1-0.1,2.3-0.3v1
		C4.7,6.4,0,7.1,0,7.1S5.1,4.5,8.9,2.7"/>
	<path fill-rule="evenodd" clip-rule="evenodd" fill="#FFFFFF" d="M8.9,6C5,6.6,0.7,7.2,0.7,7.2S5,7.8,8.9,8.4V7.5
		c-1.1-0.2-2-0.3-2-0.3s0.9-0.1,2-0.3V6z"/>
	<path fill-rule="evenodd" clip-rule="evenodd" fill="#FFFFFF" d="M8.9,8.6v1C7.5,9.4,6.5,9.3,6.5,9.3s1.1,0.5,2.3,1.2v1.2
		C5.1,9.9,0,7.3,0,7.3S4.7,8,8.9,8.6"/>
	<path fill-rule="evenodd" clip-rule="evenodd" fill="#FFFFFF" d="M8.9,11.7v-1.2c1.7,0.8,3.8,1.8,4.3,2c0.8,0.2,1.8,0,2.1-0.5
		c0.4-0.5,0-1.1-0.8-1.4C14,10.4,11,9.9,8.9,9.6v-1c3,0.4,5.8,0.9,6.4,1.1c1.5,0.5,2.2,1.7,1.5,2.7c-0.7,1-2.5,1.5-4.1,1
		C12.2,13.2,10.7,12.5,8.9,11.7"/>
	<path fill-rule="evenodd" clip-rule="evenodd" fill="#FFFFFF" d="M8.9,8.4C11.4,8.7,13.7,9,14.3,9c1.5,0,2.7-0.8,2.7-1.8
		s-1.2-1.8-2.7-1.8c-0.6,0-2.9,0.3-5.5,0.6v0.9c1.9-0.3,4.6-0.6,5.1-0.6c0.8,0,1.4,0.4,1.4,0.9c0,0.5-0.6,0.9-1.4,0.9
		c-0.5,0-3.2-0.4-5.1-0.6V8.4z"/>
	<path fill-rule="evenodd" clip-rule="evenodd" fill="#FFFFFF" d="M8.9,5.8v-1C11,4.5,14,4,14.5,3.9c0.8-0.2,1.2-0.9,0.8-1.4
		C14.9,2,13.9,1.7,13.1,2c-0.5,0.1-2.6,1.1-4.3,2V2.7c1.8-0.9,3.3-1.6,3.8-1.7c1.5-0.5,3.4,0,4.1,1c0.7,1,0,2.2-1.5,2.7
		C14.6,4.9,11.9,5.3,8.9,5.8"/>
	<path fill-rule="evenodd" clip-rule="evenodd" fill="#FFFFFF" d="M55.9,3.5v2.3c-2.4,0.7-5,0.8-7.5,0.9l-7.8,0.5l7.8,0.6
		c5.3,0.4,5.8,0.4,7.6,0.9v2.3l0,0c-4.1-1.1-6.2-1.2-19.5-2.2L21.2,7.6C21,8.4,20.3,9,19.4,9c-1,0-1.9-0.8-1.9-1.9
		c0-1,0.8-1.8,1.9-1.8c0.9,0,1.7,0.7,1.8,1.5L36.4,6C49.7,5,52,4.6,55.9,3.5L55.9,3.5z"/>
	<path fill-rule="evenodd" clip-rule="evenodd" fill="#FFFFFF" d="M55.9,10.9V8.6c1.8-0.4,2.2-0.5,7.6-0.9l7.8-0.5
		c-3.8-0.2-12-0.5-15.4-1.4h0V3.5l0,0c3.9,1,6.2,1.4,19.5,2.4l5.2,0.2c0.9-0.4,7.5-3.7,10.9-5.3v1.2c-1.9,0.9-4.4,2.2-4.4,2.2
		s2.3-0.3,4.4-0.6v1c-4,0.6-9.4,1.4-10.7,1.5l10.7,0.4v1.4l-9.8,0.4c2,0.3,6.4,0.9,9.8,1.4v1c-2.1-0.3-4.4-0.6-4.4-0.6
		s2.5,1.2,4.4,2.2v1.2c-3.1-1.4-9-4.3-10.6-5.1l-5.4,0.2C62.1,9.6,60.1,9.7,55.9,10.9L55.9,10.9z"/>
	<path fill-rule="evenodd" clip-rule="evenodd" fill="#FFFFFF" d="M91.5,13.5v-1.2c1,0.5,1.9,0.9,2.2,1c0.8,0.2,1.8,0,2.1-0.5
		c0.4-0.5,0-1.2-0.8-1.4c-0.3-0.1-1.9-0.3-3.5-0.6v-1c2.1,0.3,3.8,0.6,4.3,0.8c1.5,0.5,2.2,1.7,1.5,2.7c-0.7,1-2.5,1.5-4.1,1
		C93,14.1,92.3,13.9,91.5,13.5"/>
	<path fill-rule="evenodd" clip-rule="evenodd" fill="#FFFFFF" d="M91.5,7.9V6.5L94,6.6c0.2-0.7,0.9-1.3,1.8-1.3
		c1,0,1.9,0.8,1.9,1.9c0,1-0.8,1.9-1.9,1.9c-0.8,0-1.5-0.5-1.8-1.3L91.5,7.9z"/>
	<path fill-rule="evenodd" clip-rule="evenodd" fill="#FFFFFF" d="M91.5,4.6v-1c1.6-0.2,3.2-0.5,3.5-0.6c0.8-0.2,1.2-0.9,0.8-1.4
		c-0.4-0.5-1.3-0.8-2.1-0.5c-0.3,0.1-1.2,0.5-2.2,1V0.9c0.8-0.4,1.5-0.6,1.8-0.7c1.5-0.5,3.4,0,4.1,1c0.7,1,0,2.2-1.5,2.7
		C95.3,4,93.6,4.3,91.5,4.6"/>
</g>
</svg>
