<?xml version="1.0" encoding="utf-8"?>
<!-- Generator: Adobe Illustrator 15.0.0, SVG Export Plug-In . SVG Version: 6.00 Build 0)  -->
<!DOCTYPE svg PUBLIC "-//W3C//DTD SVG 1.1//EN" "http://www.w3.org/Graphics/SVG/1.1/DTD/svg11.dtd">
<svg version="1.1" id="Layer_1" xmlns="http://www.w3.org/2000/svg" xmlns:xlink="http://www.w3.org/1999/xlink" x="0px" y="0px"
	 width="173.608px" height="118.142px" viewBox="0 0 173.608 118.142" enable-background="new 0 0 173.608 118.142"
	 xml:space="preserve">
<g>
	<path fill="none" stroke="#9C7DB9" stroke-width="4" stroke-miterlimit="10" d="M133.272,26.077
		c0.053-5.97-2.147-11.979-6.199-16.382c-5.534-6.017-14.298-8.843-22.319-7.264C97.105,3.937,90.369,9.374,87.162,16.47
		c-0.175,0.383-0.703,0.379-0.871-0.006C82.021,6.702,70.643,0.499,60.122,2.388C52.24,3.803,45.503,9.632,42.356,16.911
		c-3.846,8.896-1.662,17.529,4.148,25.036c3.609,4.662,8.139,8.514,12.635,12.328c9.236,7.837,18.469,15.674,27.705,23.512
		c9.74-8.334,19.48-16.666,29.221-25c6.666-5.703,13.643-11.866,16.223-20.249C132.93,30.442,133.252,28.263,133.272,26.077z"/>
	<path fill="#C4C6C8" d="M158.358,80.055l-28.416-29.159c-2.39-2.908-5.067-6.821-6.683-10.223
		c-1.17-2.467-1.242-6.808-1.144-10.184c0.142-1.031,0.185-2.07,0.126-3.107c0.004-0.053,0.006-0.112,0.008-0.164l-0.015,0.018
		c-0.244-3.76-1.787-7.452-4.661-10.326c-6.279-6.279-17.072-5.634-23.349,0.643c-6.278,6.279-5.664,15.812,0.616,22.091
		c3.355,3.357,7.826,4.902,12.22,4.671l-0.017,0.019c0.301,0.049,1.559-0.156,1.713,0.021c0.097,0,0.104,0.092,0.078,0.218
		c-2.352,1.812-4.455,3.933-6.217,6.324c0.645,2.06,2.406,4.001,4.33,5.153c3.112,1.865,6.885,2.879,9.193,5.678
		c3.232,3.917,2.363,9.684,3.732,14.572c1.594,5.69,6.297,10.082,11.563,12.765c5.267,2.681,25.468,7.543,29.925,7.543
		c4.029,0,7.878-0.756,11.426-2.121L158.358,80.055z"/>
	<path fill="#C4C6C8" d="M161.365,97.427c-4.576,0-24.99-4.929-30.299-7.633c-6.125-3.118-10.492-7.956-11.982-13.273
		c-0.5-1.784-0.711-3.671-0.916-5.497c-0.369-3.304-0.719-6.425-2.657-8.775c-1.455-1.764-3.563-2.775-5.798-3.844
		c-1.061-0.51-2.158-1.035-3.186-1.651c-2.228-1.335-4.025-3.485-4.691-5.612c-0.077-0.249-0.032-0.521,0.123-0.73
		c1.406-1.912,3.043-3.676,4.879-5.266c-4.723,0.188-9.268-1.613-12.576-4.922c-6.803-6.803-7.068-16.798-0.617-23.25
		c6.816-6.817,18.042-7.11,24.51-0.644c2.852,2.854,4.584,6.641,4.887,10.682c0.025,0.083,0.033,0.169,0.027,0.259
		c0.053,1.157,0.008,2.257-0.141,3.331c-0.131,4.708,0.218,7.917,1.074,9.721c1.422,2.999,3.941,6.852,6.574,10.054l28.365,29.103
		l14.428,14.427c0.197,0.196,0.279,0.479,0.222,0.75s-0.248,0.496-0.507,0.597C169.332,96.695,165.389,97.427,161.365,97.427
		 M103.539,51.037c0.639,1.632,2.074,3.254,3.832,4.309c0.963,0.577,2.024,1.086,3.052,1.578c2.296,1.1,4.668,2.236,6.354,4.279
		c2.248,2.729,2.641,6.24,3.022,9.638c0.196,1.761,0.399,3.581,0.864,5.237c1.367,4.877,5.43,9.344,11.146,12.254
		c5.034,2.563,25.22,7.455,29.556,7.455c3.396,0,6.73-0.551,9.932-1.635l-13.518-13.518c-0.004-0.003-0.006-0.005-0.009-0.008
		l-28.417-29.158c-2.797-3.4-5.335-7.285-6.836-10.444c-0.982-2.072-1.371-5.428-1.222-10.56c0.144-1.06,0.183-2.052,0.128-3.036
		l0.016-0.004c-0.013-0.045-0.019-0.089-0.021-0.137c-0.242-3.707-1.813-7.188-4.424-9.799c-5.842-5.841-16.002-5.545-22.189,0.644
		c-5.79,5.79-5.525,14.789,0.616,20.93c3.044,3.042,7.264,4.664,11.598,4.432c0.089-0.006,0.173,0.006,0.253,0.026
		c0.092-0.005,0.219-0.016,0.357-0.026c0.67-0.047,1.186-0.084,1.551,0.149c0.113,0.058,0.214,0.136,0.285,0.224
		c0.189,0.234,0.247,0.529,0.171,0.877c-0.04,0.189-0.147,0.357-0.299,0.477C107.123,46.926,105.175,48.881,103.539,51.037"/>
	<path fill="#9C7DB9" d="M90.509,51.094c0,0,18.747-5.279,24.55-11.083c5.803-5.803,5.885-15.13,0.184-20.832
		c-5.703-5.703-16.362-6.395-22.098-0.527C81.439,30.627,90.509,51.094,90.509,51.094"/>
	<path fill="#C4C6C8" d="M90.047,52.075l-0.287-0.649c-0.381-0.855-9.159-21.114,2.797-33.347c2.708-2.771,6.58-4.311,10.9-4.335
		c0.033-0.001,0.067-0.001,0.103-0.001c4.64,0,9.218,1.811,12.262,4.855c6.013,6.014,5.931,15.879-0.183,21.992
		c-5.885,5.888-24.133,11.074-24.907,11.292L90.047,52.075z M103.56,15.384c-0.03,0-0.062,0-0.093,0.002
		c-3.881,0.021-7.338,1.385-9.737,3.84C83.711,29.476,89.601,46.536,90.99,50.1c3.441-1.023,18.529-5.709,23.489-10.669
		c5.474-5.474,5.556-14.299,0.183-19.672C111.918,17.017,107.774,15.384,103.56,15.384"/>
	<path fill="#FFFFFF" d="M88.985,29.458c0,8.34,6.761,15.102,15.101,15.102c8.342,0,15.102-6.762,15.102-15.102
		s-6.76-15.101-15.102-15.101C95.746,14.357,88.985,21.118,88.985,29.458"/>
	<path fill="#C4C6C8" d="M104.086,45.379c-8.778,0-15.92-7.142-15.92-15.921s7.142-15.922,15.92-15.922
		c8.779,0,15.922,7.143,15.922,15.922S112.865,45.379,104.086,45.379 M104.086,15.178c-7.873,0-14.28,6.407-14.28,14.28
		c0,7.875,6.407,14.281,14.28,14.281c7.875,0,14.281-6.406,14.281-14.281C118.367,21.585,111.961,15.178,104.086,15.178"/>
	<polyline fill="#FFFFFF" points="127.835,108.152 127.835,112.945 116.995,115.029 114.896,117.322 127.835,117.322 
		133.154,117.322 133.154,108.152 	"/>
	<path fill="#C4C6C8" d="M133.154,118.142h-18.258c-0.324,0-0.619-0.192-0.75-0.489c-0.131-0.298-0.074-0.645,0.146-0.886
		l2.099-2.291c0.119-0.13,0.276-0.218,0.449-0.252l10.176-1.957v-4.115c0-0.453,0.366-0.819,0.819-0.819
		c0.454,0,0.819,0.366,0.819,0.819v4.793c0,0.394-0.277,0.731-0.663,0.806l-10.574,2.034l-0.657,0.716h15.574v-8.349
		c0-0.453,0.367-0.819,0.82-0.819s0.82,0.366,0.82,0.819v9.17C133.975,117.774,133.607,118.142,133.154,118.142"/>
	<path fill="#FFFFFF" d="M148.406,94.36c-0.03-0.007-0.062-0.017-0.092-0.022c-5.75-1.364-11.611-2.594-16.877-5.274
		c-5.265-2.683-9.968-7.074-11.563-12.765c-1.37-4.889-0.501-10.655-3.732-14.572c-2.308-2.799-6.08-3.813-9.193-5.678
		c-1.924-1.152-3.686-3.094-4.33-5.153c-3.891,5.278-6.192,11.798-6.192,18.856c0,15.666,11.324,28.68,26.231,31.323
		c0.281,4.108,3.695,7.355,7.875,7.355c4.365,0,7.902-3.538,7.902-7.903c0-0.215-0.015-0.427-0.031-0.638
		C142.082,98.646,145.468,96.771,148.406,94.36"/>
	<path fill="#C4C6C8" d="M130.533,109.25c-4.347,0-8.019-3.237-8.627-7.48c-15.275-3.005-26.299-16.372-26.299-32.018
		c0-7.016,2.196-13.705,6.352-19.344c0.183-0.248,0.498-0.367,0.795-0.322c0.306,0.052,0.556,0.27,0.648,0.564
		c0.551,1.76,2.071,3.559,3.969,4.696c0.963,0.576,2.024,1.085,3.052,1.578c2.296,1.099,4.668,2.235,6.354,4.278
		c2.248,2.729,2.641,6.24,3.022,9.638c0.196,1.761,0.399,3.581,0.864,5.237c1.367,4.877,5.43,9.344,11.146,12.254
		c4.694,2.39,9.986,3.632,15.103,4.832l1.591,0.375c0.305,0.072,0.587,0.321,0.657,0.625s0.008,0.634-0.232,0.83
		c-2.877,2.359-6.128,4.196-9.672,5.467v0.065C139.256,105.336,135.343,109.25,130.533,109.25 M102.447,52.566
		c-3.408,5.096-5.199,11.008-5.199,17.186c0,15.056,10.746,27.89,25.552,30.517c0.372,0.065,0.651,0.375,0.676,0.75
		c0.255,3.697,3.354,6.592,7.058,6.592c3.906,0,7.082-3.178,7.082-7.084c0-0.19-0.013-0.38-0.028-0.569
		c-0.032-0.375,0.196-0.725,0.554-0.844c3.041-1.027,5.862-2.488,8.406-4.349l-0.01-0.003c-5.211-1.223-10.603-2.488-15.471-4.969
		c-6.125-3.117-10.492-7.955-11.982-13.272c-0.5-1.784-0.711-3.671-0.916-5.497c-0.369-3.304-0.719-6.425-2.657-8.775
		c-1.455-1.765-3.563-2.775-5.798-3.844c-1.061-0.51-2.158-1.035-3.186-1.652C104.8,55.717,103.33,54.191,102.447,52.566"/>
	<path fill="#C4C6C8" d="M103.787,37.362c-0.734,0-1.416-0.153-1.932-0.41c-0.405-0.2-0.57-0.693-0.371-1.1
		c0.203-0.406,0.699-0.57,1.101-0.369c0.71,0.354,2.017,0.357,2.964-0.244c0.816-0.519,1.217-1.371,1.192-2.537
		c-0.009-0.453,0.351-0.828,0.803-0.838h0.013c0.45,0,0.815,0.355,0.825,0.804c0.035,1.729-0.657,3.134-1.952,3.954
		C105.609,37.144,104.662,37.362,103.787,37.362"/>
	<path fill="#C4C6C8" d="M15.251,80.055l28.416-29.159c2.39-2.908,5.068-6.821,6.682-10.223c1.17-2.467,1.243-6.808,1.144-10.184
		c-0.142-1.031-0.184-2.07-0.126-3.107c-0.003-0.053-0.005-0.112-0.008-0.164l0.015,0.018c0.244-3.76,1.787-7.452,4.661-10.326
		c6.28-6.279,17.072-5.634,23.349,0.643c6.277,6.279,5.664,15.812-0.616,22.091c-3.356,3.357-7.826,4.902-12.22,4.671l0.017,0.019
		c-0.301,0.049-1.56-0.156-1.713,0.021c-0.097,0-0.104,0.092-0.078,0.218c2.351,1.812,4.454,3.933,6.218,6.324
		c-0.646,2.06-2.408,4.001-4.332,5.153c-3.111,1.865-6.885,2.879-9.192,5.678c-3.232,3.917-2.363,9.684-3.733,14.572
		c-1.594,5.69-6.297,10.082-11.563,12.765c-5.266,2.681-25.468,7.543-29.925,7.543c-4.029,0-7.878-0.756-11.425-2.121L15.251,80.055
		z"/>
	<path fill="#C4C6C8" d="M12.246,97.428c-4.026,0-7.97-0.733-11.72-2.178c-0.26-0.1-0.45-0.324-0.508-0.596
		c-0.058-0.271,0.026-0.553,0.223-0.749l14.428-14.428l28.41-29.154c2.589-3.155,5.109-7.007,6.528-10.002
		c0.859-1.809,1.207-5.017,1.066-9.808c-0.141-0.997-0.186-2.095-0.125-3.177c0.003-0.051,0.009-0.103,0.021-0.153l-0.013-0.001
		c0.266-4.105,2.006-7.959,4.899-10.852c3.162-3.164,7.51-4.811,12.288-4.629c4.591,0.174,9.046,2.094,12.222,5.271
		c3.162,3.161,4.811,7.301,4.641,11.657c-0.166,4.25-2.032,8.369-5.258,11.594c-3.31,3.308-7.862,5.1-12.576,4.921
		c1.834,1.589,3.472,3.354,4.881,5.264c0.154,0.211,0.199,0.483,0.123,0.732c-0.667,2.126-2.467,4.275-4.694,5.611
		c-1.026,0.617-2.124,1.144-3.187,1.651c-2.231,1.07-4.34,2.081-5.794,3.845c-1.94,2.352-2.289,5.473-2.66,8.777
		c-0.205,1.825-0.416,3.712-0.916,5.495c-1.49,5.317-5.857,10.155-11.982,13.274C37.235,92.498,16.822,97.428,12.246,97.428
		 M2.312,94.152c3.201,1.085,6.536,1.635,9.934,1.635c4.335,0,24.521-4.893,29.553-7.455c5.716-2.91,9.779-7.377,11.145-12.254
		c0.463-1.656,0.669-3.476,0.866-5.236c0.381-3.397,0.773-6.909,3.024-9.637c1.686-2.043,4.059-3.181,6.352-4.279
		c1.027-0.493,2.09-1.002,3.053-1.579c1.73-1.038,3.195-2.696,3.834-4.31c-1.639-2.158-3.587-4.111-5.799-5.816
		c-0.156-0.12-0.264-0.293-0.303-0.485c-0.071-0.348-0.01-0.642,0.178-0.873c0.072-0.086,0.173-0.162,0.285-0.219
		c0.361-0.233,0.881-0.196,1.549-0.147c0.138,0.008,0.267,0.021,0.367,0.024c0.078-0.022,0.162-0.027,0.242-0.026
		c4.351,0.238,8.555-1.389,11.596-4.431c2.933-2.932,4.629-6.661,4.779-10.499c0.15-3.892-1.326-7.597-4.162-10.433
		c-2.887-2.887-6.941-4.633-11.125-4.791c-4.301-0.162-8.226,1.313-11.064,4.149c-2.612,2.611-4.182,6.091-4.422,9.798
		c-0.001,0.022-0.003,0.045-0.006,0.065v0.004c-0.056,1.048-0.015,2.041,0.118,3.021c0.159,5.215-0.23,8.569-1.214,10.646
		c-1.496,3.155-4.036,7.04-6.79,10.392L15.84,80.627c-0.004,0.002-0.005,0.006-0.008,0.008L2.312,94.152z"/>
	<path fill="#9C7DB9" d="M83.102,51.094c0,0-18.748-5.279-24.55-11.083c-5.803-5.803-5.885-15.13-0.183-20.832
		c5.703-5.703,16.362-6.395,22.099-0.527C92.172,30.627,83.102,51.094,83.102,51.094"/>
	<path fill="#C4C6C8" d="M83.563,52.075l-0.684-0.192c-0.774-0.218-19.021-5.404-24.908-11.292
		c-2.959-2.96-4.609-6.875-4.646-11.027c-0.036-4.156,1.549-8.051,4.465-10.965c3.042-3.043,7.621-4.855,12.262-4.855
		c0.032,0,0.067,0,0.103,0.001c4.32,0.024,8.19,1.563,10.898,4.335C93.01,30.312,84.23,50.57,83.852,51.426L83.563,52.075z
		 M70.05,15.384c-4.216,0-8.358,1.633-11.101,4.375c-2.601,2.601-4.016,6.077-3.984,9.791c0.032,3.719,1.513,7.228,4.166,9.881
		c4.963,4.962,20.049,9.646,23.49,10.669c1.389-3.563,7.279-20.624-2.741-30.874c-2.397-2.455-5.856-3.819-9.735-3.84
		C70.111,15.384,70.082,15.384,70.05,15.384"/>
	<path fill="#FFFFFF" d="M84.625,29.458c0,8.34-6.762,15.102-15.102,15.102c-8.341,0-15.102-6.762-15.102-15.102
		s6.761-15.101,15.102-15.101C77.863,14.357,84.625,21.118,84.625,29.458"/>
	<path fill="#C4C6C8" d="M69.524,45.379c-8.779,0-15.923-7.142-15.923-15.921s7.144-15.922,15.923-15.922
		c8.778,0,15.921,7.143,15.921,15.922S78.303,45.379,69.524,45.379 M69.524,15.178c-7.876,0-14.282,6.407-14.282,14.28
		c0,7.875,6.406,14.281,14.282,14.281c7.874,0,14.28-6.406,14.28-14.281C83.805,21.585,77.398,15.178,69.524,15.178"/>
	<polyline fill="#FFFFFF" points="45.775,108.152 45.775,112.945 56.615,115.029 58.713,117.322 45.775,117.322 40.456,117.322 
		40.456,108.152 	"/>
	<path fill="#C4C6C8" d="M58.713,118.142H40.457c-0.453,0-0.82-0.367-0.82-0.82v-9.17c0-0.453,0.367-0.819,0.82-0.819
		c0.454,0,0.82,0.366,0.82,0.819v8.349h15.574l-0.657-0.716l-10.573-2.034c-0.387-0.074-0.665-0.412-0.665-0.806v-4.793
		c0-0.453,0.367-0.819,0.82-0.819c0.453,0,0.82,0.366,0.82,0.819v4.115l10.175,1.957c0.173,0.034,0.33,0.122,0.45,0.252l2.099,2.291
		c0.219,0.241,0.275,0.588,0.145,0.886C59.333,117.949,59.039,118.142,58.713,118.142"/>
	<path fill="#FFFFFF" d="M25.203,94.36c0.031-0.007,0.062-0.017,0.093-0.022c5.749-1.364,11.61-2.594,16.876-5.274
		c5.265-2.683,9.968-7.074,11.563-12.765c1.37-4.889,0.501-10.655,3.732-14.572c2.308-2.799,6.082-3.813,9.193-5.678
		c1.924-1.152,3.686-3.094,4.331-5.153c3.89,5.278,6.192,11.798,6.192,18.856c0,15.666-11.324,28.68-26.231,31.323
		c-0.282,4.108-3.695,7.355-7.875,7.355c-4.365,0-7.903-3.538-7.903-7.903c0-0.215,0.015-0.427,0.032-0.638
		C31.528,98.646,28.142,96.771,25.203,94.36"/>
	<path fill="#C4C6C8" d="M43.076,109.25c-4.809,0-8.723-3.913-8.723-8.724v-0.064c-3.545-1.272-6.796-3.109-9.67-5.466
		c-0.237-0.196-0.346-0.508-0.28-0.811c0.065-0.301,0.294-0.539,0.592-0.618c0.007-0.002,0.105-0.026,0.111-0.028l1.592-0.375
		c5.119-1.2,10.41-2.442,15.101-4.832c5.716-2.91,9.779-7.377,11.146-12.254c0.463-1.655,0.668-3.476,0.865-5.235
		c0.381-3.397,0.775-6.91,3.024-9.64c1.686-2.041,4.059-3.18,6.352-4.278c1.027-0.492,2.09-1.002,3.053-1.578
		c1.869-1.122,3.429-2.964,3.97-4.696c0.093-0.295,0.343-0.513,0.649-0.563c0.295-0.05,0.611,0.073,0.795,0.321
		c4.154,5.64,6.352,12.328,6.352,19.344c0,15.646-11.023,29.013-26.301,32.018C51.096,106.014,47.424,109.25,43.076,109.25
		 M27.062,94.764c2.544,1.861,5.364,3.32,8.406,4.35c0.356,0.119,0.583,0.465,0.556,0.838c-0.015,0.191-0.031,0.381-0.031,0.575
		c0,3.906,3.177,7.085,7.083,7.085c3.704,0,6.804-2.896,7.057-6.592c0.026-0.376,0.304-0.686,0.676-0.751
		c14.806-2.627,25.554-15.461,25.554-30.517c0-6.178-1.795-12.09-5.2-17.186c-0.884,1.624-2.353,3.15-4.082,4.186
		c-1.026,0.617-2.124,1.143-3.187,1.652c-2.231,1.069-4.339,2.079-5.794,3.844c-1.94,2.352-2.289,5.473-2.659,8.777
		c-0.206,1.824-0.417,3.713-0.917,5.495c-1.49,5.317-5.857,10.155-11.981,13.272c-4.867,2.48-10.257,3.744-15.47,4.969
		L27.062,94.764z"/>
	<path fill="#C4C6C8" d="M69.822,37.362c-0.873,0-1.82-0.219-2.643-0.74c-1.293-0.82-1.987-2.226-1.951-3.955
		c0.011-0.447,0.375-0.803,0.82-0.803h0.019c0.452,0.01,0.812,0.385,0.802,0.838c-0.025,1.166,0.375,2.019,1.191,2.537
		c0.951,0.602,2.254,0.598,2.964,0.244c0.401-0.201,0.897-0.037,1.099,0.369s0.036,0.898-0.369,1.1
		C71.238,37.209,70.557,37.362,69.822,37.362"/>
</g>
</svg>
