<?xml version="1.0" encoding="utf-8"?>
<!-- Generator: Adobe Illustrator 18.1.1, SVG Export Plug-In . SVG Version: 6.00 Build 0)  -->
<svg version="1.1" id="Layer_1" xmlns="http://www.w3.org/2000/svg" xmlns:xlink="http://www.w3.org/1999/xlink" x="0px" y="0px"
	 viewBox="0 0 97.6 14.4" enable-background="new 0 0 97.6 14.4" xml:space="preserve">
<g>
	<path fill-rule="evenodd" clip-rule="evenodd" fill="#FFFFFF" d="M88.7,11.7v-1.2c1.3-0.6,2.3-1.2,2.3-1.2s-1,0.1-2.3,0.3v-1
		c4.2-0.6,8.9-1.3,8.9-1.3S92.5,9.9,88.7,11.7"/>
	<path fill-rule="evenodd" clip-rule="evenodd" fill="#FFFFFF" d="M88.7,8.4c3.8-0.5,8.2-1.2,8.2-1.2S92.6,6.6,88.7,6v0.9
		c1.1,0.2,2,0.3,2,0.3s-0.9,0.1-2,0.3V8.4z"/>
	<path fill-rule="evenodd" clip-rule="evenodd" fill="#FFFFFF" d="M88.7,5.8v-1c1.3,0.2,2.3,0.3,2.3,0.3S90,4.6,88.7,4V2.7
		c3.8,1.8,8.9,4.3,8.9,4.3S92.9,6.4,88.7,5.8"/>
	<path fill-rule="evenodd" clip-rule="evenodd" fill="#FFFFFF" d="M88.7,2.7V4c-1.7-0.8-3.8-1.8-4.3-2c-0.8-0.2-1.8,0-2.1,0.5
		c-0.4,0.5,0,1.1,0.8,1.4c0.5,0.1,3.4,0.6,5.6,0.9v1c-3-0.4-5.8-0.9-6.4-1.1C80.8,4.2,80.1,3,80.8,2c0.7-1,2.5-1.5,4.1-1
		C85.4,1.2,86.9,1.9,88.7,2.7"/>
	<path fill-rule="evenodd" clip-rule="evenodd" fill="#FFFFFF" d="M88.7,6c-2.6-0.3-4.9-0.6-5.5-0.6c-1.5,0-2.7,0.8-2.7,1.8
		c0,1,1.2,1.8,2.7,1.8c0.6,0,2.9-0.3,5.5-0.6V7.5c-1.9,0.3-4.6,0.6-5.1,0.6c-0.8,0-1.4-0.4-1.4-0.9c0-0.5,0.6-0.9,1.4-0.9
		c0.5,0,3.2,0.4,5.1,0.6V6z"/>
	<path fill-rule="evenodd" clip-rule="evenodd" fill="#FFFFFF" d="M88.7,8.6v1c-2.2,0.3-5.1,0.7-5.6,0.9c-0.8,0.2-1.2,0.9-0.8,1.4
		c0.4,0.5,1.3,0.8,2.1,0.5c0.5-0.1,2.6-1.1,4.3-2v1.2c-1.8,0.9-3.3,1.6-3.8,1.7c-1.5,0.5-3.4,0-4.1-1c-0.7-1,0-2.2,1.5-2.7
		C83,9.5,85.8,9.1,88.7,8.6"/>
	<path fill-rule="evenodd" clip-rule="evenodd" fill="#FFFFFF" d="M41.7,10.9V8.6c2.4-0.7,5-0.8,7.5-0.9L57,7.2l-7.8-0.6
		c-5.3-0.4-5.8-0.4-7.6-0.9V3.5l0,0c4.1,1.1,6.2,1.2,19.5,2.2l15.2,1.1c0.2-0.8,0.9-1.5,1.8-1.5c1,0,1.9,0.8,1.9,1.9
		c0,1-0.8,1.8-1.9,1.8c-0.9,0-1.7-0.7-1.8-1.5L61.2,8.4C47.9,9.4,45.6,9.8,41.7,10.9L41.7,10.9z"/>
	<path fill-rule="evenodd" clip-rule="evenodd" fill="#FFFFFF" d="M41.7,3.5v2.3c-1.8,0.4-2.2,0.5-7.6,0.9l-7.8,0.5
		c3.8,0.2,12,0.5,15.4,1.4h0v2.3l0,0c-3.9-1-6.2-1.4-19.5-2.4L17,8.2C16.1,8.7,9.5,12,6.1,13.5v-1.2c1.9-0.9,4.4-2.2,4.4-2.2
		s-2.3,0.3-4.4,0.6v-1c4-0.6,9.4-1.4,10.7-1.5L6.1,7.9V6.5l9.8-0.4c-2-0.3-6.4-0.9-9.8-1.4v-1c2.1,0.3,4.4,0.6,4.4,0.6S8,3,6.1,2.1
		V0.9c3.1,1.4,9,4.3,10.6,5.1l5.4-0.2C35.5,4.8,37.5,4.7,41.7,3.5L41.7,3.5z"/>
	<path fill-rule="evenodd" clip-rule="evenodd" fill="#FFFFFF" d="M6.1,0.9v1.2c-1-0.5-1.9-0.9-2.2-1c-0.8-0.2-1.8,0-2.1,0.5
		c-0.4,0.5,0,1.2,0.8,1.4c0.3,0.1,1.9,0.3,3.5,0.6v1C4,4.3,2.3,4,1.8,3.9C0.3,3.4-0.4,2.2,0.3,1.2c0.7-1,2.5-1.5,4.1-1
		C4.6,0.3,5.3,0.5,6.1,0.9"/>
	<path fill-rule="evenodd" clip-rule="evenodd" fill="#FFFFFF" d="M6.1,6.5v1.4L3.6,7.8C3.4,8.5,2.7,9.1,1.9,9.1
		C0.8,9.1,0,8.2,0,7.2c0-1,0.8-1.9,1.9-1.9c0.8,0,1.5,0.5,1.8,1.3L6.1,6.5z"/>
	<path fill-rule="evenodd" clip-rule="evenodd" fill="#FFFFFF" d="M6.1,9.8v1c-1.6,0.2-3.2,0.5-3.5,0.6c-0.8,0.2-1.2,0.9-0.8,1.4
		c0.4,0.5,1.3,0.8,2.1,0.5c0.3-0.1,1.1-0.5,2.2-1v1.2c-0.8,0.4-1.5,0.6-1.8,0.7c-1.5,0.5-3.4,0-4.1-1c-0.7-1,0-2.2,1.5-2.7
		C2.3,10.4,4,10.1,6.1,9.8"/>
</g>
</svg>
