<?xml version="1.0" encoding="utf-8"?>
<!-- Generator: Adobe Illustrator 18.1.1, SVG Export Plug-In . SVG Version: 6.00 Build 0)  -->
<svg version="1.1" id="Layer_1" xmlns="http://www.w3.org/2000/svg" xmlns:xlink="http://www.w3.org/1999/xlink" x="0px" y="0px"
	 viewBox="0 0 739 62.2" enable-background="new 0 0 739 62.2" xml:space="preserve">
<g>
	<path fill="none" stroke="#FFFFFF" stroke-miterlimit="10" d="M292.6,32.6c-1-1.7-3.3-1.6-4.9-0.9c-1.9,0.8-2.3,3.3-2.3,5.1
		c0,4.2,3.9,7.6,7.2,9.7c6.7,4.2,15.3,4.3,22.3,1.2c6.7-3,12.7-10.1,10.2-17.9c-1.3-4.1-5.4-7.5-9.8-6.6c-3.2,0.6-6.3,6-1.9,7.3
		c1.3,0.4,0.7,2.4-0.6,2c-3.9-1.2-4.4-5.3-2.6-8.5c2.5-4.3,8.9-3.6,12.3-1.1c4.2,3,5.7,8.2,4.9,13.2c-0.9,5.5-5,9.7-9.6,12.4
		c-9.5,5.6-22.5,4.3-30.5-3.4c-3.7-3.5-5.6-9.1-2.5-13.6c2.1-3.1,7.7-3.2,9.6,0.1C295.1,32.8,293.3,33.8,292.6,32.6z"/>
	<path fill="none" stroke="#FFFFFF" stroke-miterlimit="10" d="M320.6,44.2c8.4-6.8,10-18.8,16.5-27.1c6.3-8,18.6-12,26.7-4.1
		c2.9,2.8,4.6,7.4,3.9,11.5c-0.7,4.4-4.3,8.8-9,9.2c-4.7,0.4-9.3-2.4-10-7.2c-0.6-3.9,3.2-8.2,7.3-6.2c1.2,0.6,0.1,2.5-1.1,1.8
		c-2.8-1.4-4.4,2.3-4.1,4.4c0.4,2.4,2.1,3.8,4.2,4.7c4.8,2,9.5-2.1,10.6-6.6c2-8.9-7.7-14.7-15.4-13.4c-8.3,1.4-13.2,9.1-16.4,16.1
		c-3,6.4-6,14-11.6,18.5C321,46.5,319.5,45,320.6,44.2z"/>
	<path fill="none" stroke="#FFFFFF" stroke-miterlimit="10" d="M265.5,47.5c-0.2-1.4-2.3-0.1-2.6,0.3c-0.8,1.1-0.2,2.6,0.4,3.6
		c1.1,2,3.4,3.1,5.5,3.7c3.9,1.1,9.4-0.3,12.5-3c4.3-3.7,3.9-10.6-0.6-13.8c-2.1-1.5-6.3-1.4-7.4,1.4c-0.6,1.4-0.8,2.8,0.3,4.1
		c0.6,0.7,2.7,1,3.1-0.1c0.5-1.3,2.5-0.7,2,0.6c-1.1,2.9-4.5,2.7-6.6,1.1c-2.6-2.1-1.4-7.2,1.2-8.8c3.8-2.3,7.5-1.3,10.5,1.6
		c3.5,3.3,3,8.2,1.3,12.2c-3.1,7.2-15.1,9.4-21.1,4.8c-2.7-2.1-4.7-5.7-2.5-9c1.4-2.1,5.7-2.1,6.2,0.7
		C267.8,48.2,265.8,48.8,265.5,47.5z"/>
	<path fill="none" stroke="#FFFFFF" stroke-miterlimit="10" d="M321.2,43.7c4.5-4.9,11.2-8,17.7-5.9c5.3,1.7,9,7.3,6.3,12.7
		c-2.3,4.8-9.6,6.6-12.8,1.7c-2.8-4.2,3.6-9.9,6.6-5.5c0.8,1.1-1.1,2.2-1.8,1.1c-0.7-1.1-2.2-0.1-2.8,0.4c-1.1,1-0.4,2.8,0.4,3.7
		c1.5,1.7,4.1,1.3,5.9,0.5c3.4-1.6,4-6.3,2.3-9.3c-1.6-2.9-6.3-4.1-9.4-3.9c-4.1,0.2-8.2,3.2-10.9,6
		C321.8,46.2,320.3,44.7,321.2,43.7z"/>
	<path fill="none" stroke="#FFFFFF" stroke-miterlimit="10" d="M356.3,9.2c2.7,0.6,6.1,1.1,8.7-0.2c1.7-0.9,2-3.3,1.3-4.8
		c-0.6-1.2-2.1-1.6-3.3-1.3c-1.4,0.2-2,2.5-0.3,2.3c1.4-0.2,1.3,2,0,2.1c-3.2,0.4-3.9-3.5-2.2-5.5c2.2-2.5,7.1-0.8,7.9,2.1
		c0.8,3-0.3,6.3-3.4,7.5c-3,1.1-6.3,0.6-9.4,0C354.4,11,355,8.9,356.3,9.2z"/>
	<path fill="none" stroke="#FFFFFF" stroke-miterlimit="10" d="M287.5,43.6c2.5,1.6,5,3.5,8.1,3.7c3.5,0.2,5.9-0.8,8.7-2.7
		c4.1,4.1,10.6,3.1,14.7,1c-0.5,2.2-4,3.8-6,4.3c-2.6,0.7-5.4,1.3-8.2,1.4c-4.5,0.3-10.2-1.5-13.8-4.4L287.5,43.6z"/>
	<path fill="none" stroke="#FFFFFF" stroke-miterlimit="10" d="M357.6,22.7c0-1.5-1.2-2.7-2.7-2.7c-1.5,0-2.7,1.2-2.7,2.7
		c0,1.5,1.2,2.7,2.7,2.7C356.4,25.4,357.6,24.2,357.6,22.7z"/>
	<path fill="none" stroke="#FFFFFF" stroke-miterlimit="10" d="M315.9,29.9c0-1.5-1.2-2.7-2.7-2.7c-1.5,0-2.7,1.2-2.7,2.7
		c0,1.5,1.2,2.7,2.7,2.7C314.7,32.6,315.9,31.4,315.9,29.9z"/>
	<circle fill="none" stroke="#FFFFFF" stroke-miterlimit="10" cx="292.2" cy="33.1" r="2.7"/>
	<path fill="none" stroke="#FFFFFF" stroke-miterlimit="10" d="M339.2,47.8c0-1.2-1-2.2-2.2-2.2c-1.2,0-2.2,1-2.2,2.2
		c0,1.2,1,2.2,2.2,2.2C338.3,50,339.2,49.1,339.2,47.8z"/>
	<path fill="none" stroke="#FFFFFF" stroke-miterlimit="10" d="M364.5,5.1c0-1.2-1-2.2-2.2-2.2c-1.2,0-2.2,1-2.2,2.2
		c0,1.2,1,2.2,2.2,2.2C363.5,7.3,364.5,6.3,364.5,5.1z"/>
	<path fill="none" stroke="#FFFFFF" stroke-miterlimit="10" d="M278.7,43.4c0-1.2-1-2.2-2.2-2.2c-1.2,0-2.2,1-2.2,2.2
		c0,1.2,1,2.2,2.2,2.2C277.7,45.6,278.7,44.6,278.7,43.4z"/>
	<path fill="none" stroke="#FFFFFF" stroke-miterlimit="10" d="M267.5,47.3c0-1.2-1-2.2-2.2-2.2c-1.2,0-2.2,1-2.2,2.2
		c0,1.2,1,2.2,2.2,2.2C266.5,49.5,267.5,48.5,267.5,47.3z"/>
	<path fill="none" stroke="#FFFFFF" stroke-miterlimit="10" d="M327.2,34.8c1.1-3.3-0.3-6.7-0.2-10.1c0.2-3.7,3.8-7.3,5.6-3.6
		c0.9-3.6-7.3-4.7-8.4-1.6c0-0.6,0-1-0.2-1.5c-2.5,0.1-1.9,4.8-1.2,6.3c1.4,2.9,3.6,5,4.1,8.5L327.2,34.8z"/>
	<path fill="none" stroke="#FFFFFF" stroke-miterlimit="10" d="M285.7,42.9c2.8,4.9,13.5,9.5,9.9,16.5c-1.1,2.2-3.7,3-5.9,1.8
		c-1-0.6-2.9-3.3-1.5-4.3c0.1,1.8,1.9,2.1,3.4,2.1c-1.3-0.5-2-0.9-2.2-2.4c0.2,0.1,0.4,0,0.6,0.1c-0.3-0.5-0.2-1.1-0.2-1.7
		c0.8,0.3,1.3-0.6,2.1,0.3c-0.1-0.3-0.3-0.7-0.4-1c1.3-0.3,2.5,1.2,2.4,2.4c1.7-1-0.4-4.9-1.4-5.8c0.7,0.8,0.2,1.2,0.1,2.1
		c-0.8-0.6-0.9-1.7-1.4-2.5c-0.7-1.1-1.7-2.2-2.6-3.2c-0.8-0.8-1.7-1.5-2.5-2.3c-1.4-1.4-1.6-2.8-2.2-4.5L285.7,42.9z"/>
	<path fill="none" stroke="#FFFFFF" stroke-miterlimit="10" d="M316.3,47.8c2.4-1.3,4.8-3.4,5.3-6.3c0.6-3.8-2.6-7.1-6.2-7.4
		c-2.6-0.2-5.1,0.4-5.6,3.2c-0.2,1.2-0.2,2.6,0.7,3.5c0.6,0.6,2.2,1,3,0.5c0.2-0.1,0.3-0.2,0.4-0.3c-2.4,0.2-2-3-1.1-4.1
		c-0.3,0.4-0.4,1.2,0.1,1.6c0.1-0.1,0.1-0.2,0.2-0.3c0.1,0.4,0.4,1.6,0.9,1.7c0.5,0.1,1.3-0.9,1.3-1.4c0,0.4,0.1,0.6,0.2,1
		c1.6-0.8,2.1-1.5,2.4-3.3c1.1,0,2.2,2.1,2.4,3c0.3,1.3,0.2,3.8-0.9,4.6c0-0.2,0-0.3-0.1-0.5c-0.1,0.1-0.5,0.3-0.6,0.4
		c-0.2,3.3-4.9,3.3-7,4c0.1,0.7,1,1.3,1.6,1.6L316.3,47.8z"/>
	<path fill="none" stroke="#FFFFFF" stroke-miterlimit="10" d="M352.2,31.2c-1.8-0.4-3.3-1.6-5.3-2c-2.1-0.5-4.8-0.2-6.2,1.6
		c-1.4,1.8-1.1,4.1,0.6,5.5c1.1,0.9,4.3,1.1,4.2-1c-1.2,1.9-3.6-0.1-3.4-1.9c0.1,0.4,0.3,0.9,0.7,1.2c0-0.1,0.2-0.2,0.3-0.3
		c0.5,0.5,1,0.6,1.4-0.1c0.3-0.5-0.2-1.3-0.4-1.7c0.1,0.1,0.5,0.2,0.6,0.2c0.4-1.8-1.3-1.8-2.5-1.9c1.3-1.8,4.4-1.2,6.2-0.6
		c2.2,0.7,4.3,1.9,6.5,2.6L352.2,31.2z"/>
	<path fill="none" stroke="#FFFFFF" stroke-miterlimit="10" d="M264.4,53.3c1.1,0.6,2.1,1.3,3.4,1.5c1.3,0.2,2.8,0,3.9-0.8
		c1-0.7,1.8-1.8,1.6-3.1c-0.1-0.8-1.2-2.2-2.3-1.2c-0.2-1.4,1.3-1.7,2.4-1.3c1.3,0.5,2.2,1.5,2.2,2.8c0.2-0.2,0.3-0.5,0.3-0.8
		c1.8,1.3,0.4,3.8-1.2,4.7c-1.1,0.6-2.4,0.9-3.6,0.8c-1.2-0.1-3-0.2-4.1-0.9L264.4,53.3z"/>
	<path fill="none" stroke="#FFFFFF" stroke-miterlimit="10" d="M367.7,20.9c1.2,3.8-0.7,8-2.3,11.4c-0.9,1.8-2.2,4.8-1.1,6.7
		c0.5,0.8,2,1.7,2.8,1c-0.4,1.4-2.3,1.7-3.5,1.3c-1.5-0.4-3.1-2-2.9-3.7c0,0.7-0.1,1.2,0.1,1.8c-2.5-1.4-2.7-4.6-0.6-6.5
		c1.5-1.4,3.3-2.5,4.7-4.2c0.7-0.9,1.2-1.9,1.6-3c0.4-1.3,0.3-2.1,0.2-3.5L367.7,20.9z"/>
	<path fill="none" stroke="#FFFFFF" stroke-miterlimit="10" d="M446.4,32.6c1-1.7,3.3-1.6,4.9-0.9c1.9,0.8,2.3,3.3,2.3,5.1
		c0,4.2-3.9,7.6-7.2,9.7c-6.7,4.2-15.3,4.3-22.3,1.2c-6.7-3-12.7-10.1-10.2-17.9c1.3-4.1,5.4-7.5,9.8-6.6c3.2,0.6,6.3,6,1.9,7.3
		c-1.3,0.4-0.7,2.4,0.6,2c3.9-1.2,4.4-5.3,2.6-8.5c-2.5-4.3-8.9-3.6-12.3-1.1c-4.2,3-5.7,8.2-4.9,13.2c0.9,5.5,5,9.7,9.6,12.4
		c9.5,5.6,22.5,4.3,30.5-3.4c3.7-3.5,5.6-9.1,2.5-13.6c-2.1-3.1-7.7-3.2-9.6,0.1C443.9,32.8,445.7,33.8,446.4,32.6z"/>
	<path fill="none" stroke="#FFFFFF" stroke-miterlimit="10" d="M418.4,44.2c-8.4-6.8-10-18.8-16.5-27.1c-6.3-8-18.6-12-26.7-4.1
		c-2.9,2.8-4.6,7.4-3.9,11.5c0.7,4.4,4.3,8.8,9,9.2c4.7,0.4,9.3-2.4,10-7.2c0.6-3.9-3.2-8.2-7.3-6.2c-1.2,0.6-0.1,2.5,1.1,1.8
		c2.8-1.4,4.4,2.3,4.1,4.4c-0.4,2.4-2.1,3.8-4.2,4.7c-4.8,2-9.5-2.1-10.6-6.6c-2-8.9,7.7-14.7,15.4-13.4c8.3,1.4,13.2,9.1,16.4,16.1
		c3,6.4,6,14,11.6,18.5C418,46.5,419.5,45,418.4,44.2z"/>
	<path fill="none" stroke="#FFFFFF" stroke-miterlimit="10" d="M473.5,47.5c0.2-1.4,2.3-0.1,2.6,0.3c0.8,1.1,0.2,2.6-0.4,3.6
		c-1.1,2-3.4,3.1-5.5,3.7c-3.9,1.1-9.4-0.3-12.5-3c-4.3-3.7-3.9-10.6,0.6-13.8c2.1-1.5,6.3-1.4,7.4,1.4c0.6,1.4,0.8,2.8-0.3,4.1
		c-0.6,0.7-2.7,1-3.1-0.1c-0.5-1.3-2.5-0.7-2,0.6c1.1,2.9,4.5,2.7,6.6,1.1c2.6-2.1,1.4-7.2-1.2-8.8c-3.8-2.3-7.5-1.3-10.5,1.6
		c-3.5,3.3-3,8.2-1.3,12.2c3.1,7.2,15.1,9.4,21.1,4.8c2.7-2.1,4.7-5.7,2.5-9c-1.4-2.1-5.7-2.1-6.2,0.7
		C471.2,48.2,473.2,48.8,473.5,47.5z"/>
	<path fill="none" stroke="#FFFFFF" stroke-miterlimit="10" d="M417.8,43.7c-4.5-4.9-11.2-8-17.7-5.9c-5.3,1.7-9,7.3-6.3,12.7
		c2.3,4.8,9.6,6.6,12.8,1.7c2.8-4.2-3.6-9.9-6.6-5.5c-0.8,1.1,1.1,2.2,1.8,1.1c0.7-1.1,2.2-0.1,2.7,0.4c1.1,1,0.4,2.8-0.4,3.7
		c-1.5,1.7-4.1,1.3-5.9,0.5c-3.4-1.6-4-6.3-2.3-9.3c1.6-2.9,6.3-4.1,9.4-3.9c4.1,0.2,8.2,3.2,10.9,6
		C417.2,46.2,418.7,44.7,417.8,43.7z"/>
	<path fill="none" stroke="#FFFFFF" stroke-miterlimit="10" d="M382.7,9.2c-2.7,0.6-6.1,1.1-8.7-0.2c-1.7-0.9-2-3.3-1.3-4.8
		c0.6-1.2,2.1-1.6,3.3-1.3c1.4,0.2,2,2.5,0.3,2.3c-1.4-0.2-1.3,2,0,2.1c3.2,0.4,3.9-3.5,2.2-5.5c-2.2-2.5-7.1-0.8-7.9,2.1
		c-0.9,3,0.3,6.3,3.4,7.5c3,1.1,6.3,0.6,9.4,0C384.6,11,384,8.9,382.7,9.2z"/>
	<path fill="none" stroke="#FFFFFF" stroke-miterlimit="10" d="M451.5,43.6c-2.5,1.6-5,3.5-8.1,3.7c-3.5,0.2-5.9-0.8-8.7-2.7
		c-4.1,4.1-10.7,3.1-14.7,1c0.6,2.2,4,3.8,6,4.3c2.6,0.7,5.4,1.3,8.2,1.4c4.5,0.3,10.2-1.5,13.8-4.4L451.5,43.6z"/>
	<path fill="none" stroke="#FFFFFF" stroke-miterlimit="10" d="M381.4,22.7c0-1.5,1.2-2.7,2.7-2.7c1.5,0,2.7,1.2,2.7,2.7
		c0,1.5-1.2,2.7-2.7,2.7C382.6,25.4,381.4,24.2,381.4,22.7z"/>
	<path fill="none" stroke="#FFFFFF" stroke-miterlimit="10" d="M423.1,29.9c0-1.5,1.2-2.7,2.7-2.7c1.5,0,2.7,1.2,2.7,2.7
		c0,1.5-1.2,2.7-2.7,2.7C424.3,32.6,423.1,31.4,423.1,29.9z"/>
	<path fill="none" stroke="#FFFFFF" stroke-miterlimit="10" d="M444.1,33.1c0-1.5,1.2-2.7,2.7-2.7c1.5,0,2.7,1.2,2.7,2.7
		c0,1.5-1.2,2.7-2.7,2.7C445.3,35.8,444.1,34.6,444.1,33.1z"/>
	<path fill="none" stroke="#FFFFFF" stroke-miterlimit="10" d="M399.7,47.8c0-1.2,1-2.2,2.2-2.2c1.2,0,2.2,1,2.2,2.2
		c0,1.2-1,2.2-2.2,2.2C400.7,50,399.7,49.1,399.7,47.8z"/>
	<path fill="none" stroke="#FFFFFF" stroke-miterlimit="10" d="M374.5,5.1c0-1.2,1-2.2,2.2-2.2c1.2,0,2.2,1,2.2,2.2
		c0,1.2-1,2.2-2.2,2.2C375.5,7.3,374.5,6.3,374.5,5.1z"/>
	<path fill="none" stroke="#FFFFFF" stroke-miterlimit="10" d="M460.3,43.4c0-1.2,1-2.2,2.2-2.2c1.2,0,2.2,1,2.2,2.2
		c0,1.2-1,2.2-2.2,2.2C461.3,45.6,460.3,44.6,460.3,43.4z"/>
	<path fill="none" stroke="#FFFFFF" stroke-miterlimit="10" d="M471.5,47.3c0-1.2,1-2.2,2.2-2.2c1.2,0,2.2,1,2.2,2.2
		c0,1.2-1,2.2-2.2,2.2C472.4,49.5,471.5,48.5,471.5,47.3z"/>
	<path fill="none" stroke="#FFFFFF" stroke-miterlimit="10" d="M411.8,34.8c-1.1-3.3,0.3-6.7,0.2-10.1c-0.2-3.7-3.8-7.3-5.6-3.6
		c-0.9-3.6,7.3-4.7,8.4-1.6c0-0.6,0-1,0.2-1.5c2.5,0.1,1.9,4.8,1.2,6.3c-1.4,2.9-3.6,5-4.1,8.5L411.8,34.8z"/>
	<path fill="none" stroke="#FFFFFF" stroke-miterlimit="10" d="M453.3,42.9c-2.8,4.9-13.5,9.5-9.9,16.5c1.1,2.2,3.7,3,5.9,1.8
		c1-0.6,2.9-3.3,1.5-4.3c-0.1,1.8-1.9,2.1-3.4,2.1c1.3-0.5,2-0.9,2.2-2.4c-0.2,0.1-0.4,0-0.6,0.1c0.3-0.5,0.2-1.1,0.2-1.7
		c-0.8,0.3-1.3-0.6-2.1,0.3c0.1-0.3,0.3-0.7,0.4-1c-1.3-0.3-2.5,1.2-2.4,2.4c-1.7-1,0.4-4.9,1.4-5.8c-0.7,0.8-0.2,1.2-0.1,2.1
		c0.8-0.6,0.9-1.7,1.4-2.5c0.7-1.1,1.7-2.2,2.6-3.2c0.8-0.8,1.7-1.5,2.5-2.3c1.4-1.4,1.6-2.8,2.2-4.5L453.3,42.9z"/>
	<path fill="none" stroke="#FFFFFF" stroke-miterlimit="10" d="M422.7,47.8c-2.4-1.3-4.8-3.4-5.3-6.3c-0.6-3.8,2.6-7.1,6.2-7.4
		c2.6-0.2,5,0.4,5.6,3.2c0.2,1.2,0.2,2.6-0.7,3.5c-0.6,0.6-2.2,1-3,0.5c-0.2-0.1-0.3-0.2-0.4-0.3c2.4,0.2,2-3,1.1-4.1
		c0.3,0.4,0.4,1.2-0.1,1.6c-0.1-0.1-0.1-0.2-0.2-0.3c-0.1,0.4-0.4,1.6-0.9,1.7c-0.5,0.1-1.3-0.9-1.3-1.4c0,0.4-0.1,0.6-0.2,1
		c-1.6-0.8-2.1-1.5-2.4-3.3c-1.1,0-2.2,2.1-2.4,3c-0.3,1.3-0.2,3.8,0.9,4.6c0-0.2,0-0.3,0.1-0.5c0.1,0.1,0.5,0.3,0.6,0.4
		c0.2,3.3,4.9,3.3,7,4c-0.1,0.7-1,1.3-1.6,1.6L422.7,47.8z"/>
	<path fill="none" stroke="#FFFFFF" stroke-miterlimit="10" d="M386.8,31.2c1.8-0.4,3.3-1.6,5.3-2c2.2-0.5,4.8-0.2,6.2,1.6
		c1.4,1.8,1.1,4.1-0.6,5.5c-1.1,0.9-4.3,1.1-4.2-1c1.2,1.9,3.6-0.1,3.4-1.9c-0.1,0.4-0.2,0.9-0.7,1.2c0-0.1-0.2-0.2-0.3-0.3
		c-0.5,0.5-1,0.6-1.4-0.1c-0.3-0.5,0.2-1.3,0.4-1.7c-0.1,0.1-0.5,0.2-0.6,0.2c-0.4-1.8,1.3-1.8,2.5-1.9c-1.3-1.8-4.4-1.2-6.2-0.6
		c-2.2,0.7-4.3,1.9-6.5,2.6L386.8,31.2z"/>
	<path fill="none" stroke="#FFFFFF" stroke-miterlimit="10" d="M474.5,53.3c-1.1,0.6-2.1,1.3-3.4,1.5c-1.3,0.2-2.8,0-3.9-0.8
		c-1-0.7-1.8-1.8-1.6-3.1c0.1-0.8,1.2-2.2,2.3-1.2c0.2-1.4-1.3-1.7-2.4-1.3c-1.3,0.5-2.2,1.5-2.2,2.8c-0.2-0.2-0.3-0.5-0.3-0.8
		c-1.8,1.3-0.4,3.8,1.2,4.7c1.1,0.6,2.4,0.9,3.6,0.8c1.2-0.1,3-0.2,4.1-0.9L474.5,53.3z"/>
	<path fill="none" stroke="#FFFFFF" stroke-miterlimit="10" d="M371.3,20.9c-1.2,3.8,0.7,8,2.3,11.4c0.9,1.8,2.2,4.8,1.1,6.7
		c-0.5,0.8-2,1.7-2.8,1c0.4,1.4,2.3,1.7,3.5,1.3c1.5-0.4,3.1-2,2.9-3.7c0,0.7,0.1,1.2-0.1,1.8c2.5-1.4,2.7-4.6,0.6-6.5
		c-1.5-1.4-3.3-2.5-4.7-4.2c-0.7-0.9-1.2-1.9-1.6-3c-0.5-1.3-0.3-2.1-0.2-3.5L371.3,20.9z"/>
	<path fill="none" stroke="#FFFFFF" stroke-miterlimit="10" d="M262.7,56c-0.7-0.5-1.4-1.1-2-1.7H0.5v3h264.8
		C264.4,56.9,263.5,56.5,262.7,56z"/>
	<path fill="none" stroke="#FFFFFF" stroke-miterlimit="10" d="M478,54.3c-0.7,0.9-1.5,1.7-2.3,2.4c-0.3,0.2-0.5,0.4-0.8,0.6h263.7
		v-3H478z"/>
	<path fill="none" stroke="#FFFFFF" stroke-miterlimit="10" d="M259.5,52c-0.1-0.4-0.2-0.8-0.3-1.2H0.5v1.5h259.1
		C259.6,52.3,259.6,52.2,259.5,52z"/>
	<path fill="none" stroke="#FFFFFF" stroke-miterlimit="10" d="M479.7,50.9c-0.1,0.5-0.3,1-0.6,1.5h259.3v-1.5H479.7z"/>
</g>
</svg>
