<?xml version="1.0" encoding="utf-8"?>
<!-- Generator: Adobe Illustrator 18.1.1, SVG Export Plug-In . SVG Version: 6.00 Build 0)  -->
<svg version="1.1" id="Layer_1" xmlns="http://www.w3.org/2000/svg" xmlns:xlink="http://www.w3.org/1999/xlink" x="0px" y="0px"
	 viewBox="0 0 210.8 19.4" enable-background="new 0 0 210.8 19.4" xml:space="preserve">
<g>
	<path fill="#FFFFFF" d="M6.3,8.6c1.7,0,3.4-0.5,4.8-1.3c0.2-0.1,0.3-0.4,0.2-0.7c-0.1-0.2-0.3-0.4-0.6-0.4c0,0-0.4,0.1-1,0.1
		c-1,0-2.3-0.1-3.3-0.8c-1.5-1-0.9-2-0.9-2c0.1-0.1,0.5-0.4,1.2-0.4C7,3.1,7.1,3,7.2,2.9c0.1-0.1,0.1-0.3,0.1-0.5c0,0-0.3-1-1.3-1.7
		C5.5,0.4,4.9,0.2,4.3,0.2C3.1,0.2,2,0.8,1.3,1.8C0.8,2.7,0.6,3.7,0.8,4.7c0.2,1.1,0.9,2.2,2.1,3C3.7,8.3,4.9,8.6,6.3,8.6L6.3,8.6z
		 M2.2,2.4c0.6-1,1.6-1.1,2-1.1c0.4,0,0.8,0.1,1.1,0.3C5.6,1.8,5.8,2,6,2.1C5.3,2.3,4.9,2.7,4.7,2.9C4.5,3.2,4.3,3.7,4.4,4.3
		c0.1,0.6,0.4,1.4,1.5,2.1c0.7,0.5,1.5,0.7,2.2,0.9C7.5,7.4,6.9,7.5,6.3,7.5l0,0c-1.2,0-2.2-0.3-2.8-0.7C1.6,5.5,1.5,3.6,2.2,2.4z"
		/>
	<path fill="#FFFFFF" d="M11.1,12.3c-1.4-0.8-3.1-1.2-4.8-1.2c-1.4,0-2.6,0.3-3.4,0.9c-1.2,0.8-1.9,1.8-2.1,3c-0.2,1,0,2,0.6,2.9
		c0.6,1,1.7,1.6,2.9,1.6c0.7,0,1.3-0.2,1.7-0.5c1-0.7,1.3-1.6,1.3-1.7c0-0.2,0-0.3-0.1-0.5c-0.1-0.1-0.3-0.2-0.4-0.2
		c-0.7,0-1.2-0.4-1.2-0.4c0,0-0.6-1,0.9-2c1-0.7,2.3-0.8,3.3-0.8c0.6,0,1,0.1,1,0.1c0.3,0,0.5-0.1,0.6-0.4
		C11.4,12.7,11.3,12.4,11.1,12.3z M5.9,13.2c-1.1,0.8-1.4,1.6-1.5,2.1c-0.1,0.6,0.1,1.1,0.3,1.4c0.2,0.3,0.6,0.6,1.3,0.8
		c-0.1,0.2-0.3,0.4-0.6,0.5c-0.3,0.2-0.7,0.3-1.1,0.3c-0.4,0-1.4-0.1-2-1.1c-0.8-1.2-0.7-3,1.2-4.4c0.6-0.4,1.6-0.7,2.8-0.7
		c0.6,0,1.2,0.1,1.8,0.2C7.3,12.5,6.5,12.7,5.9,13.2z"/>
	<circle fill="#FFFFFF" cx="0.6" cy="9.6" r="0.6"/>
	<circle fill="#FFFFFF" cx="2.6" cy="9.6" r="0.6"/>
	<path fill="#FFFFFF" d="M207.9,11.7c-0.8-0.6-2-0.9-3.4-0.9c-1.7,0-3.4,0.5-4.8,1.2c-0.2,0.1-0.3,0.4-0.2,0.6
		c0.1,0.2,0.3,0.4,0.6,0.4c0,0,0.4-0.1,1-0.1c1,0,2.3,0.1,3.3,0.8c1.5,1,0.9,2,0.9,2c-0.1,0.1-0.5,0.4-1.2,0.4
		c-0.2,0-0.3,0.1-0.4,0.2c-0.1,0.1-0.1,0.3-0.1,0.5c0,0,0.3,1,1.3,1.7c0.5,0.3,1.1,0.5,1.7,0.5l0,0c1.2,0,2.3-0.6,2.9-1.6
		c0.5-0.9,0.7-1.9,0.6-2.9C209.8,13.6,209.1,12.5,207.9,11.7z M208.6,17c-0.6,1-1.6,1.1-2,1.1l0,0c-0.4,0-0.8-0.1-1.1-0.3
		c-0.2-0.2-0.4-0.4-0.6-0.5c0.6-0.2,1.1-0.5,1.3-0.8c0.2-0.3,0.4-0.8,0.3-1.4c-0.1-0.6-0.4-1.4-1.5-2.1c-0.7-0.5-1.5-0.7-2.2-0.9
		c0.6-0.1,1.2-0.2,1.8-0.2c1.2,0,2.2,0.2,2.8,0.7C209.3,14,209.3,15.8,208.6,17z"/>
	<path fill="#FFFFFF" d="M209.5,1.6c-0.6-1-1.7-1.6-2.9-1.6c-0.7,0-1.3,0.2-1.7,0.5c-1,0.7-1.3,1.6-1.3,1.7c0,0.2,0,0.3,0.1,0.5
		c0.1,0.1,0.3,0.2,0.4,0.2c0.7,0,1.2,0.4,1.2,0.4c0,0,0.6,1-0.9,2c-1,0.7-2.3,0.8-3.3,0.8c-0.6,0-1-0.1-1-0.1
		c-0.3,0-0.5,0.1-0.6,0.4c-0.1,0.2,0,0.5,0.2,0.6c1.4,0.8,3.1,1.2,4.8,1.2c1.4,0,2.6-0.3,3.4-0.9c1.2-0.8,1.9-1.8,2.1-3
		C210.2,3.5,210,2.5,209.5,1.6z M207.3,6.6c-0.6,0.4-1.6,0.7-2.8,0.7c-0.6,0-1.2-0.1-1.8-0.2c0.8-0.1,1.5-0.4,2.2-0.9
		c1.1-0.8,1.4-1.6,1.5-2.1c0.1-0.6-0.1-1.1-0.3-1.4c-0.2-0.3-0.6-0.6-1.3-0.8c0.1-0.2,0.3-0.4,0.6-0.5c0.3-0.2,0.7-0.3,1.1-0.3
		c0.4,0,1.4,0.1,2,1.1C209.3,3.4,209.3,5.2,207.3,6.6z"/>
	<path fill="#FFFFFF" d="M206.5,9.6c0-0.3-0.2-0.5-0.5-0.5h-93.4c-0.3,0-0.5,0.2-0.5,0.5c0,0.3,0.2,0.5,0.5,0.5H206
		C206.3,10.1,206.5,9.9,206.5,9.6z"/>
	<path fill="#FFFFFF" d="M98.5,9.6c0-0.3-0.2-0.5-0.5-0.5H4.5C4.2,9.1,4,9.3,4,9.6c0,0.3,0.2,0.5,0.5,0.5H98
		C98.3,10.1,98.5,9.9,98.5,9.6z"/>
	<circle fill="#FFFFFF" cx="210.2" cy="9.8" r="0.6"/>
	<circle fill="#FFFFFF" cx="208.2" cy="9.8" r="0.6"/>
	<circle fill="#FFFFFF" cx="105.2" cy="9.8" r="0.6"/>
	<circle fill="#FFFFFF" cx="108.5" cy="9.8" r="0.6"/>
	<circle fill="#FFFFFF" cx="102" cy="9.8" r="0.6"/>
</g>
</svg>
