<?xml version="1.0" encoding="utf-8"?>
<!-- Generator: Adobe Illustrator 15.0.0, SVG Export Plug-In . SVG Version: 6.00 Build 0)  -->
<!DOCTYPE svg PUBLIC "-//W3C//DTD SVG 1.1//EN" "http://www.w3.org/Graphics/SVG/1.1/DTD/svg11.dtd">
<svg version="1.1" id="Layer_1" xmlns="http://www.w3.org/2000/svg" xmlns:xlink="http://www.w3.org/1999/xlink" x="0px" y="0px"
	 width="739px" height="71.139px" viewBox="0 0 739 71.139" enable-background="new 0 0 739 71.139" xml:space="preserve">
<g>
	<path fill="#FFFFFF" d="M292.61,41.53c-1.031-1.733-3.292-1.577-4.922-0.866c-1.868,0.823-2.291,3.275-2.31,5.071
		c-0.044,4.224,3.891,7.647,7.161,9.69c6.659,4.15,15.286,4.323,22.329,1.166c6.747-3.021,12.708-10.127,10.214-17.897
		c-1.314-4.074-5.407-7.478-9.799-6.622c-3.178,0.612-6.275,6.024-1.9,7.334c1.304,0.391,0.748,2.438-0.563,2.043
		c-3.882-1.16-4.415-5.302-2.572-8.495c2.519-4.346,8.878-3.623,12.345-1.118c4.207,3.032,5.735,8.24,4.896,13.17
		c-0.937,5.479-4.991,9.713-9.62,12.426c-9.536,5.581-22.529,4.35-30.529-3.391c-3.655-3.541-5.619-9.08-2.534-13.632
		c2.121-3.124,7.679-3.237,9.634,0.055C295.138,41.644,293.306,42.708,292.61,41.53z"/>
	<path fill="#FFFFFF" d="M320.579,53.078c8.423-6.767,10.018-18.823,16.513-27.051c6.278-7.952,18.645-11.966,26.704-4.093
		c2.918,2.842,4.584,7.419,3.913,11.465c-0.724,4.382-4.328,8.793-9.015,9.181c-4.735,0.388-9.258-2.4-10.009-7.236
		c-0.608-3.924,3.243-8.224,7.271-6.163c1.212,0.626,0.143,2.454-1.075,1.828c-2.817-1.44-4.38,2.301-4.06,4.351
		c0.362,2.355,2.092,3.782,4.19,4.671c4.84,2.026,9.534-2.073,10.562-6.61c2.012-8.937-7.724-14.681-15.411-13.435
		c-8.345,1.355-13.174,9.06-16.438,16.058c-2.978,6.393-5.994,13.993-11.645,18.534C321.026,55.429,319.519,53.937,320.579,53.078z"
		/>
	<path fill="#FFFFFF" d="M265.517,56.342c-0.25-1.42-2.332-0.102-2.605,0.318c-0.754,1.139-0.174,2.568,0.385,3.623
		c1.07,2.034,3.392,3.148,5.49,3.737c3.932,1.111,9.432-0.317,12.463-2.964c4.279-3.729,3.885-10.582-0.579-13.79
		c-2.139-1.537-6.276-1.435-7.433,1.384c-0.573,1.397-0.837,2.774,0.294,4.082c0.629,0.726,2.659,0.981,3.077-0.127
		c0.479-1.266,2.53-0.718,2.043,0.563c-1.083,2.864-4.481,2.725-6.618,1.062c-2.635-2.06-1.401-7.223,1.172-8.774
		c3.764-2.277,7.491-1.276,10.545,1.64c3.467,3.309,3.003,8.176,1.286,12.2c-3.078,7.225-15.114,9.4-21.086,4.764
		c-2.735-2.124-4.666-5.74-2.549-8.957c1.368-2.083,5.674-2.093,6.162,0.678C267.798,57.117,265.754,57.687,265.517,56.342z"/>
	<path fill="#FFFFFF" d="M321.193,52.622c4.504-4.862,11.178-8.034,17.724-5.873c5.295,1.738,8.958,7.263,6.262,12.74
		c-2.346,4.771-9.571,6.614-12.806,1.695c-2.783-4.24,3.587-9.895,6.558-5.524c0.77,1.131-1.071,2.195-1.831,1.067
		c-0.732-1.076-2.158-0.14-2.751,0.382c-1.107,0.97-0.399,2.813,0.381,3.702c1.457,1.659,4.145,1.326,5.908,0.506
		c3.405-1.572,4.018-6.312,2.318-9.32c-1.647-2.909-6.282-4.105-9.358-3.929c-4.06,0.235-8.241,3.17-10.909,6.048
		C321.757,55.124,320.264,53.621,321.193,52.622z"/>
	<path fill="#FFFFFF" d="M356.313,18.082c2.74,0.556,6.12,1.148,8.711-0.226c1.655-0.886,2.005-3.254,1.281-4.846
		c-0.559-1.236-2.112-1.559-3.311-1.343c-1.37,0.239-1.975,2.516-0.253,2.309c1.357-0.152,1.342,1.967,0,2.123
		c-3.229,0.379-3.918-3.48-2.153-5.498c2.169-2.48,7.054-0.84,7.887,2.091c0.849,3.021-0.277,6.34-3.367,7.456
		c-2.982,1.079-6.328,0.591-9.357-0.026C354.411,19.849,354.979,17.81,356.313,18.082z"/>
	<path fill="#FFFFFF" d="M287.5,52.488c2.5,1.628,5.03,3.531,8.122,3.714c3.512,0.203,5.877-0.802,8.659-2.675
		c4.058,4.086,10.648,3.094,14.671,0.965c-0.548,2.206-3.992,3.786-5.979,4.349c-2.635,0.747-5.425,1.251-8.167,1.417
		c-4.543,0.276-10.239-1.455-13.778-4.415L287.5,52.488z"/>
	<path fill="#FFFFFF" d="M357.621,31.553c0-1.507-1.229-2.734-2.74-2.734s-2.737,1.228-2.737,2.734c0,1.514,1.227,2.742,2.737,2.742
		S357.621,33.066,357.621,31.553z"/>
	<path fill="#FFFFFF" d="M315.932,38.798c0-1.513-1.222-2.743-2.733-2.743c-1.515,0-2.741,1.23-2.741,2.743
		c0,1.515,1.227,2.739,2.741,2.739C314.71,41.537,315.932,40.313,315.932,38.798z"/>
	<circle fill="#FFFFFF" cx="292.178" cy="41.977" r="2.737"/>
	<path fill="#FFFFFF" d="M339.25,56.725c0-1.218-0.988-2.209-2.205-2.209c-1.224,0-2.211,0.991-2.211,2.209
		c0,1.221,0.987,2.206,2.211,2.206C338.262,58.931,339.25,57.945,339.25,56.725z"/>
	<path fill="#FFFFFF" d="M364.508,13.977c0-1.214-0.987-2.202-2.209-2.202c-1.22,0-2.205,0.988-2.205,2.202
		c0,1.222,0.985,2.209,2.205,2.209C363.521,16.186,364.508,15.198,364.508,13.977z"/>
	<path fill="#FFFFFF" d="M278.666,52.313c0-1.222-0.988-2.21-2.206-2.21c-1.224,0-2.211,0.988-2.211,2.21
		c0,1.214,0.987,2.202,2.211,2.202C277.678,54.516,278.666,53.527,278.666,52.313z"/>
	<path fill="#FFFFFF" d="M267.538,56.195c0-1.221-0.99-2.205-2.207-2.205c-1.223,0-2.211,0.984-2.211,2.205
		c0,1.222,0.988,2.209,2.211,2.209C266.548,58.404,267.538,57.417,267.538,56.195z"/>
	<path fill="#FFFFFF" d="M327.238,43.649c1.108-3.26-0.334-6.74-0.176-10.062c0.176-3.712,3.763-7.3,5.613-3.551
		c0.914-3.574-7.313-4.688-8.447-1.631c0.044-0.556-0.032-1.021-0.2-1.511c-2.527,0.133-1.933,4.804-1.203,6.35
		c1.385,2.912,3.58,5.005,4.059,8.469L327.238,43.649z"/>
	<path fill="#FFFFFF" d="M285.729,51.781c2.83,4.948,13.494,9.455,9.907,16.461c-1.128,2.203-3.708,3.05-5.935,1.85
		c-1.044-0.562-2.948-3.265-1.482-4.256c0.139,1.833,1.922,2.077,3.425,2.112c-1.279-0.518-1.952-0.934-2.189-2.37
		c0.186,0.066,0.379,0.006,0.604,0.124c-0.347-0.474-0.237-1.146-0.202-1.72c0.779,0.308,1.34-0.567,2.082,0.343
		c-0.113-0.302-0.257-0.695-0.36-1c1.323-0.31,2.466,1.163,2.393,2.355c1.669-1-0.423-4.851-1.364-5.775
		c0.655,0.818,0.151,1.208,0.117,2.056c-0.827-0.612-0.879-1.673-1.426-2.498c-0.726-1.097-1.65-2.206-2.557-3.15
		c-0.786-0.818-1.712-1.469-2.516-2.251c-1.387-1.351-1.59-2.81-2.218-4.533L285.729,51.781z"/>
	<path fill="#FFFFFF" d="M316.331,56.682c2.39-1.265,4.82-3.407,5.269-6.258c0.591-3.753-2.57-7.065-6.158-7.39
		c-2.577-0.237-5.052,0.439-5.603,3.211c-0.225,1.15-0.248,2.635,0.697,3.513c0.618,0.579,2.19,0.962,2.984,0.532
		c0.19-0.106,0.289-0.188,0.412-0.336c-2.394,0.2-1.976-2.954-1.068-4.122c-0.342,0.381-0.405,1.236,0.128,1.558
		c0.059-0.122,0.09-0.217,0.161-0.333c0.078,0.426,0.354,1.554,0.93,1.66c0.504,0.093,1.331-0.938,1.319-1.4
		c0.041,0.365,0.087,0.646,0.162,1.006c1.589-0.787,2.142-1.465,2.376-3.282c1.089,0.034,2.156,2.133,2.373,3.022
		c0.315,1.285,0.199,3.758-0.906,4.63c0.009-0.154-0.043-0.35-0.057-0.509c-0.112,0.063-0.502,0.315-0.611,0.416
		c-0.243,3.345-4.939,3.255-7.027,3.974c0.099,0.664,0.987,1.253,1.573,1.565L316.331,56.682z"/>
	<path fill="#FFFFFF" d="M352.165,40.125c-1.779-0.442-3.328-1.57-5.26-2.024c-2.149-0.499-4.781-0.227-6.232,1.617
		c-1.379,1.761-1.105,4.139,0.595,5.534c1.146,0.943,4.335,1.146,4.184-0.98c-1.159,1.894-3.622-0.117-3.427-1.856
		c0.08,0.446,0.253,0.936,0.673,1.165c0.043-0.08,0.214-0.223,0.259-0.296c0.526,0.485,1.035,0.562,1.362-0.08
		c0.271-0.546-0.237-1.258-0.415-1.74c0.107,0.078,0.505,0.16,0.621,0.227c0.42-1.762-1.345-1.778-2.48-1.854
		c1.252-1.841,4.445-1.174,6.184-0.615c2.186,0.704,4.279,1.909,6.523,2.625L352.165,40.125z"/>
	<path fill="#FFFFFF" d="M264.447,62.201c1.145,0.642,2.124,1.315,3.444,1.48c1.325,0.168,2.779,0.045,3.89-0.751
		c0.988-0.71,1.827-1.812,1.588-3.115c-0.147-0.785-1.241-2.202-2.319-1.158c-0.244-1.4,1.255-1.666,2.407-1.252
		c1.255,0.461,2.156,1.498,2.224,2.758c0.157-0.189,0.287-0.48,0.35-0.755c1.771,1.302,0.366,3.827-1.163,4.709
		c-1.068,0.613-2.38,0.88-3.616,0.816c-1.229-0.052-3-0.208-4.066-0.876L264.447,62.201z"/>
	<path fill="#FFFFFF" d="M367.688,29.791c1.235,3.758-0.708,8.05-2.293,11.391c-0.854,1.813-2.221,4.761-1.062,6.715
		c0.46,0.771,2.031,1.675,2.83,1.003c-0.385,1.404-2.348,1.66-3.536,1.312c-1.483-0.433-3.108-2.05-2.916-3.703
		c-0.021,0.667-0.067,1.197,0.069,1.813c-2.541-1.436-2.678-4.591-0.603-6.54c1.531-1.444,3.312-2.452,4.683-4.152
		c0.715-0.885,1.192-1.916,1.57-2.968c0.448-1.252,0.266-2.149,0.196-3.458L367.688,29.791z"/>
	<path fill="#FFFFFF" d="M446.395,41.53c1.026-1.733,3.281-1.577,4.912-0.866c1.869,0.823,2.295,3.275,2.312,5.071
		c0.044,4.224-3.891,7.647-7.164,9.69c-6.657,4.15-15.279,4.323-22.325,1.166c-6.747-3.021-12.711-10.127-10.212-17.897
		c1.313-4.074,5.406-7.478,9.801-6.622c3.172,0.612,6.272,6.024,1.898,7.334c-1.308,0.391-0.749,2.438,0.565,2.043
		c3.876-1.16,4.411-5.302,2.563-8.495c-2.512-4.346-8.877-3.623-12.337-1.118c-4.213,3.032-5.738,8.24-4.896,13.17
		c0.932,5.479,4.985,9.713,9.617,12.426c9.534,5.581,22.533,4.35,30.527-3.391c3.655-3.541,5.618-9.08,2.539-13.632
		c-2.126-3.124-7.686-3.237-9.639,0.055C443.859,41.644,445.69,42.708,446.395,41.53z"/>
	<path fill="#FFFFFF" d="M418.416,53.078c-8.424-6.767-10.018-18.823-16.51-27.051c-6.276-7.952-18.644-11.966-26.709-4.093
		c-2.914,2.842-4.579,7.419-3.908,11.465c0.729,4.382,4.331,8.793,9.018,9.181c4.732,0.388,9.255-2.4,10.004-7.236
		c0.607-3.924-3.24-8.224-7.263-6.163c-1.218,0.626-0.145,2.454,1.064,1.828c2.824-1.44,4.383,2.301,4.067,4.351
		c-0.368,2.355-2.1,3.782-4.19,4.671c-4.848,2.026-9.537-2.073-10.562-6.61c-2.013-8.937,7.722-14.681,15.41-13.435
		c8.343,1.355,13.172,9.06,16.434,16.058c2.979,6.393,5.995,13.993,11.645,18.534C417.974,55.429,419.482,53.937,418.416,53.078z"/>
	<path fill="#FFFFFF" d="M473.474,56.342c0.25-1.42,2.332-0.102,2.61,0.318c0.75,1.139,0.168,2.568-0.383,3.623
		c-1.074,2.034-3.398,3.148-5.493,3.737c-3.931,1.111-9.432-0.317-12.464-2.964c-4.271-3.729-3.876-10.582,0.579-13.79
		c2.141-1.537,6.279-1.435,7.438,1.384c0.566,1.397,0.831,2.774-0.298,4.082c-0.631,0.726-2.658,0.981-3.083-0.127
		c-0.476-1.266-2.526-0.718-2.043,0.563c1.087,2.864,4.492,2.725,6.621,1.062c2.637-2.06,1.4-7.223-1.166-8.774
		c-3.767-2.277-7.496-1.276-10.547,1.64c-3.463,3.309-3.002,8.176-1.284,12.2c3.074,7.225,15.113,9.4,21.085,4.764
		c2.733-2.124,4.661-5.74,2.545-8.957c-1.367-2.083-5.673-2.093-6.158,0.678C471.189,57.117,473.241,57.687,473.474,56.342z"/>
	<path fill="#FFFFFF" d="M417.806,52.622c-4.51-4.862-11.184-8.034-17.729-5.873c-5.289,1.738-8.952,7.263-6.259,12.74
		c2.349,4.771,9.576,6.614,12.805,1.695c2.785-4.24-3.581-9.895-6.552-5.524c-0.773,1.131,1.064,2.195,1.831,1.067
		c0.729-1.076,2.151-0.14,2.746,0.382c1.108,0.97,0.396,2.813-0.379,3.702c-1.456,1.659-4.144,1.326-5.91,0.506
		c-3.4-1.572-4.018-6.312-2.315-9.32c1.648-2.909,6.281-4.105,9.356-3.929c4.063,0.235,8.241,3.17,10.907,6.048
		C417.238,55.124,418.737,53.621,417.806,52.622z"/>
	<path fill="#FFFFFF" d="M382.684,18.082c-2.741,0.556-6.115,1.148-8.709-0.226c-1.654-0.886-2.008-3.254-1.28-4.846
		c0.559-1.236,2.112-1.559,3.304-1.343c1.379,0.239,1.982,2.516,0.258,2.309c-1.359-0.152-1.341,1.967,0,2.123
		c3.229,0.379,3.921-3.48,2.155-5.498c-2.167-2.48-7.056-0.84-7.888,2.091c-0.853,3.021,0.276,6.34,3.37,7.456
		c2.982,1.079,6.323,0.591,9.357-0.026C384.59,19.849,384.021,17.81,382.684,18.082z"/>
	<path fill="#FFFFFF" d="M451.501,52.488c-2.504,1.628-5.03,3.531-8.128,3.714c-3.513,0.203-5.875-0.802-8.658-2.675
		c-4.056,4.086-10.651,3.094-14.674,0.965c0.553,2.206,3.999,3.786,5.985,4.349c2.632,0.747,5.422,1.251,8.163,1.417
		c4.546,0.276,10.243-1.455,13.776-4.415L451.501,52.488z"/>
	<path fill="#FFFFFF" d="M381.376,31.553c0-1.507,1.226-2.734,2.736-2.734c1.517,0,2.743,1.228,2.743,2.734
		c0,1.514-1.227,2.742-2.743,2.742C382.602,34.295,381.376,33.066,381.376,31.553z"/>
	<path fill="#FFFFFF" d="M423.064,38.798c0-1.513,1.226-2.743,2.736-2.743c1.515,0,2.737,1.23,2.737,2.743
		c0,1.515-1.223,2.739-2.737,2.739C424.29,41.537,423.064,40.313,423.064,38.798z"/>
	<path fill="#FFFFFF" d="M444.082,41.977c0-1.513,1.226-2.738,2.741-2.738c1.512,0,2.736,1.226,2.736,2.738
		c0,1.51-1.225,2.734-2.736,2.734C445.308,44.711,444.082,43.486,444.082,41.977z"/>
	<path fill="#FFFFFF" d="M399.745,56.725c0-1.218,0.992-2.209,2.211-2.209c1.218,0,2.206,0.991,2.206,2.209
		c0,1.221-0.988,2.206-2.206,2.206C400.737,58.931,399.745,57.945,399.745,56.725z"/>
	<path fill="#FFFFFF" d="M374.485,13.977c0-1.214,0.993-2.202,2.213-2.202c1.218,0,2.204,0.988,2.204,2.202
		c0,1.222-0.986,2.209-2.204,2.209C375.479,16.186,374.485,15.198,374.485,13.977z"/>
	<path fill="#FFFFFF" d="M460.326,52.313c0-1.222,0.991-2.21,2.21-2.21c1.22,0,2.209,0.988,2.209,2.21
		c0,1.214-0.989,2.202-2.209,2.202C461.317,54.516,460.326,53.527,460.326,52.313z"/>
	<path fill="#FFFFFF" d="M471.453,56.195c0-1.221,0.986-2.205,2.209-2.205s2.21,0.984,2.21,2.205c0,1.222-0.987,2.209-2.21,2.209
		S471.453,57.417,471.453,56.195z"/>
	<path fill="#FFFFFF" d="M411.759,43.649c-1.105-3.26,0.335-6.74,0.175-10.062c-0.175-3.712-3.766-7.3-5.612-3.551
		c-0.918-3.574,7.313-4.688,8.447-1.631c-0.042-0.556,0.031-1.021,0.199-1.511c2.528,0.133,1.938,4.804,1.208,6.35
		c-1.388,2.912-3.582,5.005-4.065,8.469L411.759,43.649z"/>
	<path fill="#FFFFFF" d="M453.265,51.781c-2.826,4.948-13.486,9.455-9.899,16.461c1.123,2.203,3.704,3.05,5.93,1.85
		c1.042-0.562,2.948-3.265,1.479-4.256c-0.137,1.833-1.918,2.077-3.421,2.112c1.281-0.518,1.953-0.934,2.191-2.37
		c-0.188,0.066-0.378,0.006-0.603,0.124c0.343-0.474,0.236-1.146,0.2-1.72c-0.779,0.308-1.34-0.567-2.081,0.343
		c0.113-0.302,0.256-0.695,0.359-1c-1.324-0.31-2.466,1.163-2.391,2.355c-1.675-1,0.417-4.851,1.364-5.775
		c-0.657,0.818-0.155,1.208-0.123,2.056c0.831-0.612,0.883-1.673,1.431-2.498c0.725-1.097,1.651-2.206,2.557-3.15
		c0.786-0.818,1.71-1.469,2.508-2.251c1.395-1.351,1.599-2.81,2.221-4.533L453.265,51.781z"/>
	<path fill="#FFFFFF" d="M422.665,56.682c-2.391-1.265-4.819-3.407-5.269-6.258c-0.589-3.753,2.57-7.065,6.163-7.39
		c2.573-0.237,5.049,0.439,5.596,3.211c0.231,1.15,0.25,2.635-0.693,3.513c-0.617,0.579-2.192,0.962-2.984,0.532
		c-0.192-0.106-0.289-0.188-0.414-0.336c2.397,0.2,1.975-2.954,1.069-4.122c0.343,0.381,0.406,1.236-0.123,1.558
		c-0.06-0.122-0.097-0.217-0.166-0.333c-0.076,0.426-0.351,1.554-0.934,1.66c-0.5,0.093-1.327-0.938-1.313-1.4
		c-0.04,0.365-0.089,0.646-0.165,1.006c-1.592-0.787-2.138-1.465-2.375-3.282c-1.09,0.034-2.151,2.133-2.371,3.022
		c-0.321,1.285-0.197,3.758,0.907,4.63c-0.009-0.154,0.041-0.35,0.055-0.509c0.111,0.063,0.497,0.315,0.612,0.416
		c0.239,3.345,4.938,3.255,7.024,3.974c-0.093,0.664-0.983,1.253-1.573,1.565L422.665,56.682z"/>
	<path fill="#FFFFFF" d="M386.832,40.125c1.78-0.442,3.325-1.57,5.26-2.024c2.151-0.499,4.784-0.227,6.229,1.617
		c1.381,1.761,1.106,4.139-0.589,5.534c-1.149,0.943-4.336,1.146-4.184-0.98c1.156,1.894,3.623-0.117,3.424-1.856
		c-0.078,0.446-0.25,0.936-0.676,1.165c-0.043-0.08-0.211-0.223-0.258-0.296c-0.522,0.485-1.034,0.562-1.358-0.08
		c-0.274-0.546,0.232-1.258,0.41-1.74c-0.106,0.078-0.5,0.16-0.62,0.227c-0.414-1.762,1.346-1.778,2.483-1.854
		c-1.256-1.841-4.444-1.174-6.182-0.615c-2.188,0.704-4.285,1.909-6.525,2.625L386.832,40.125z"/>
	<path fill="#FFFFFF" d="M474.545,62.201c-1.146,0.642-2.129,1.315-3.441,1.48c-1.331,0.168-2.783,0.045-3.895-0.751
		c-0.989-0.71-1.824-1.812-1.589-3.115c0.146-0.785,1.243-2.202,2.324-1.158c0.243-1.4-1.261-1.666-2.408-1.252
		c-1.257,0.461-2.154,1.498-2.227,2.758c-0.157-0.189-0.284-0.48-0.348-0.755c-1.768,1.302-0.365,3.827,1.163,4.709
		c1.066,0.613,2.376,0.88,3.621,0.816c1.228-0.052,2.996-0.208,4.061-0.876L474.545,62.201z"/>
	<path fill="#FFFFFF" d="M371.307,29.791c-1.229,3.758,0.714,8.05,2.294,11.391c0.855,1.813,2.226,4.761,1.062,6.715
		c-0.456,0.771-2.026,1.675-2.828,1.003c0.385,1.404,2.339,1.66,3.535,1.312c1.48-0.433,3.109-2.05,2.914-3.703
		c0.023,0.667,0.07,1.197-0.071,1.813c2.547-1.436,2.68-4.591,0.61-6.54c-1.532-1.444-3.315-2.452-4.686-4.152
		c-0.712-0.885-1.193-1.916-1.567-2.968c-0.452-1.252-0.266-2.149-0.199-3.458L371.307,29.791z"/>
	<path fill="#FFFFFF" d="M262.683,64.872c-0.729-0.464-1.402-1.051-1.954-1.729H0.5v3.034h264.835
		C264.376,65.804,263.476,65.371,262.683,64.872z"/>
	<path fill="#FFFFFF" d="M478.005,63.143c-0.669,0.888-1.464,1.703-2.342,2.405c-0.263,0.203-0.543,0.417-0.832,0.629H738.5v-3.034
		H478.005z"/>
	<path fill="#FFFFFF" d="M259.534,60.935c-0.13-0.429-0.213-0.803-0.266-1.156H0.5v1.464h259.144
		C259.605,61.143,259.566,61.04,259.534,60.935z"/>
	<path fill="#FFFFFF" d="M479.715,59.778c-0.136,0.498-0.331,0.985-0.554,1.461H738.5v-1.461H479.715z"/>
</g>
</svg>
