<?xml version="1.0" encoding="utf-8"?>
<!-- Generator: Adobe Illustrator 18.1.1, SVG Export Plug-In . SVG Version: 6.00 Build 0)  -->
<svg version="1.1" id="Layer_1" xmlns="http://www.w3.org/2000/svg" xmlns:xlink="http://www.w3.org/1999/xlink" x="0px" y="0px"
	 viewBox="0 0 256 154.4" enable-background="new 0 0 256 154.4" xml:space="preserve">
<g>
	<g>
		<path fill="#4C4C4C" d="M162.6,48.4c5.5-9.5,14.5-9.5,19.9,0l2.1,3.7c5.5,9.5,14.5,25.1,19.9,34.7l2.1,3.5c5.5,9.5,1,17.1-10,17.1
			h-4.1c-11,0-29,0-40,0h-4.1c-11,0-15.5-7.6-10-17.1l2.1-3.6c5.5-9.5,14.5-25.1,19.9-34.6L162.6,48.4z"/>
	</g>
	<g>
		<path fill="#4C4C4C" d="M209.6,41.4c5.5-9.5,14.5-9.5,19.9,0l2.1,3.7c5.5,9.5,14.5,25.1,19.9,34.7l2.1,3.5c5.5,9.5,1,17.1-10,17.1
			h-4.1c-11,0-29,0-40,0h-4.1c-11,0-15.5-7.6-10-17.1l2.1-3.6c5.5-9.5,14.5-25.1,19.9-34.6L209.6,41.4z"/>
	</g>
	<g>
		<path fill="#4C4C4C" d="M80.6,16.4c5.5-9.5,14.5-9.5,19.9,0l2.1,3.7c5.5,9.5,14.5,25.1,19.9,34.7l2.1,3.5c5.5,9.5,1,17.1-10,17.1
			h-4.1c-11,0-29,0-40,0h-4.1c-11,0-15.5-7.6-10-17.1l2.1-3.6C64,45.1,73,29.6,78.5,20.1L80.6,16.4z"/>
	</g>
	<g>
		<path fill="#4C4C4C" d="M114.6,24.4c5.5-9.5,14.5-9.5,19.9,0l6.7,11.7c5.5,9.5,14.5,25.1,19.9,34.7l6.7,11.5
			c5.5,9.5,1,17.1-10,17.1h-13.3c-11,0-29,0-40,0H91.3c-11,0-15.5-7.6-10-17.1L88,70.7c5.5-9.5,14.5-25.1,19.9-34.6L114.6,24.4z"/>
	</g>
	<g>
		<path fill="#4C4C4C" d="M157.1,7.2c5.5-9.5,14.5-9.5,19.9,0l7.4,12.8c5.5,9.5,14.5,25.1,19.9,34.7l7.4,12.6
			c5.5,9.5,1,17.1-10,17.1h-14.6c-11,0-29,0-40,0h-14.6c-11,0-15.5-7.6-10-17.1l7.4-12.7c5.5-9.5,14.5-25.1,19.9-34.6L157.1,7.2z"/>
	</g>
	<g>
		<polygon fill="#FFFFFF" points="73.4,96.8 76.9,103.1 80.5,109.4 73.4,109.4 66.3,109.4 69.8,103.1 		"/>
		<polygon fill="#FFFFFF" points="73.4,101.2 77.9,108.8 82.4,116.4 73.4,116.4 64.3,116.4 68.8,108.8 		"/>
		<polygon fill="#FFFFFF" points="73.4,106.2 79.1,115.8 84.7,125.4 73.4,125.4 62,125.4 67.7,115.8 		"/>
		<rect x="72.1" y="124.4" fill="#FFFFFF" width="3" height="6"/>
	</g>
	<g>
		<polygon fill="#FFFFFF" points="54.4,51.8 57.9,58.1 61.5,64.4 54.4,64.4 47.3,64.4 50.8,58.1 		"/>
		<polygon fill="#FFFFFF" points="54.4,56.2 58.9,63.8 63.4,71.4 54.4,71.4 45.3,71.4 49.8,63.8 		"/>
		<polygon fill="#FFFFFF" points="54.4,61.2 60.1,70.8 65.7,80.4 54.4,80.4 43,80.4 48.7,70.8 		"/>
		<rect x="53.1" y="79.4" fill="#FFFFFF" width="3" height="6"/>
	</g>
	<g>
		<polygon fill="#FFFFFF" points="131.4,79.8 134.9,86.1 138.5,92.4 131.4,92.4 124.3,92.4 127.8,86.1 		"/>
		<polygon fill="#FFFFFF" points="131.4,84.2 135.9,91.8 140.4,99.4 131.4,99.4 122.3,99.4 126.8,91.8 		"/>
		<polygon fill="#FFFFFF" points="131.4,89.2 137.1,98.8 142.7,108.4 131.4,108.4 120,108.4 125.7,98.8 		"/>
		<rect x="130.1" y="107.4" fill="#FFFFFF" width="3" height="6"/>
	</g>
	<g>
		<polygon fill="#FFFFFF" points="178.4,105.8 181.9,112.1 185.5,118.4 178.4,118.4 171.3,118.4 174.8,112.1 		"/>
		<polygon fill="#FFFFFF" points="178.4,110.2 182.9,117.8 187.4,125.4 178.4,125.4 169.3,125.4 173.8,117.8 		"/>
		<polygon fill="#FFFFFF" points="178.4,115.2 184.1,124.8 189.7,134.4 178.4,134.4 167,134.4 172.7,124.8 		"/>
		<rect x="177.1" y="133.4" fill="#FFFFFF" width="3" height="6"/>
	</g>
	<g>
		<polygon fill="#FFFFFF" points="205.4,81.8 208.9,88.1 212.5,94.4 205.4,94.4 198.3,94.4 201.8,88.1 		"/>
		<polygon fill="#FFFFFF" points="205.4,86.2 209.9,93.8 214.4,101.4 205.4,101.4 196.3,101.4 200.8,93.8 		"/>
		<polygon fill="#FFFFFF" points="205.4,91.2 211.1,100.8 216.7,110.4 205.4,110.4 194,110.4 199.7,100.8 		"/>
		<rect x="204.1" y="109.4" fill="#FFFFFF" width="3" height="6"/>
	</g>
	<g>
		<polygon fill="#FFFFFF" points="125.4,118.8 128.9,125.1 132.5,131.4 125.4,131.4 118.3,131.4 121.8,125.1 		"/>
		<polygon fill="#FFFFFF" points="125.4,123.2 129.9,130.8 134.4,138.4 125.4,138.4 116.3,138.4 120.8,130.8 		"/>
		<polygon fill="#FFFFFF" points="125.4,128.2 131.1,137.8 136.7,147.4 125.4,147.4 114,147.4 119.7,137.8 		"/>
		<rect x="124.1" y="146.4" fill="#FFFFFF" width="3" height="6"/>
	</g>
	<g>
		<polygon fill="#FFFFFF" points="233.4,120.8 236.9,127.1 240.5,133.4 233.4,133.4 226.3,133.4 229.8,127.1 		"/>
		<polygon fill="#FFFFFF" points="233.4,125.2 237.9,132.8 242.4,140.4 233.4,140.4 224.3,140.4 228.8,132.8 		"/>
		<polygon fill="#FFFFFF" points="233.4,130.2 239.1,139.8 244.7,149.4 233.4,149.4 222,149.4 227.7,139.8 		"/>
		<rect x="232.1" y="148.4" fill="#FFFFFF" width="3" height="6"/>
	</g>
	<g>
		<polygon fill="#FFFFFF" points="11.4,92.8 14.9,99.1 18.5,105.4 11.4,105.4 4.3,105.4 7.8,99.1 		"/>
		<polygon fill="#FFFFFF" points="11.4,97.2 15.9,104.8 20.4,112.4 11.4,112.4 2.3,112.4 6.8,104.8 		"/>
		<polygon fill="#FFFFFF" points="11.4,102.2 17.1,111.8 22.7,121.4 11.4,121.4 0,121.4 5.7,111.8 		"/>
		<rect x="10.1" y="120.4" fill="#FFFFFF" width="3" height="6"/>
	</g>
	<g>
		<polygon fill="#FFFFFF" points="99.4,84.8 102.9,91.1 106.5,97.4 99.4,97.4 92.3,97.4 95.8,91.1 		"/>
		<polygon fill="#FFFFFF" points="99.4,89.2 103.9,96.8 108.4,104.4 99.4,104.4 90.3,104.4 94.8,96.8 		"/>
		<polygon fill="#FFFFFF" points="99.4,94.2 105.1,103.8 110.7,113.4 99.4,113.4 88,113.4 93.7,103.8 		"/>
		<rect x="98.1" y="112.4" fill="#FFFFFF" width="3" height="6"/>
	</g>
</g>
</svg>
