<?xml version="1.0" encoding="utf-8"?>
<!-- Generator: Adobe Illustrator 18.1.1, SVG Export Plug-In . SVG Version: 6.00 Build 0)  -->
<svg version="1.1" id="Layer_1" xmlns="http://www.w3.org/2000/svg" xmlns:xlink="http://www.w3.org/1999/xlink" x="0px" y="0px"
	 viewBox="0 0 263 155.4" enable-background="new 0 0 263 155.4" xml:space="preserve">
<g>
	<g>
		<path fill="#4C4C4C" d="M60.6,9.2c5.5-9.5,14.5-9.5,19.9,0L97.7,39c5.5,9.5,14.5,25.1,19.9,34.7l17.1,29.6c5.5,9.5,1,17.1-10,17.1
			H90.6c-11,0-29,0-40,0H16.5c-11,0-15.5-7.6-10-17.1l17.1-29.7C29.1,64,38,48.5,43.5,38.9L60.6,9.2z"/>
	</g>
	<g>
		<path fill="#4C4C4C" d="M191.6,25.4c5.5-9.5,14.5-9.5,19.9,0l2.1,3.7c5.5,9.5,14.5,25.1,19.9,34.7l2.1,3.5c5.5,9.5,1,17.1-10,17.1
			h-4.1c-11,0-29,0-40,0h-4.1c-11,0-15.5-7.6-10-17.1l2.1-3.6c5.5-9.5,14.5-25.1,19.9-34.6L191.6,25.4z"/>
	</g>
	<g>
		<path fill="#4C4C4C" d="M216.6,32.4c5.5-9.5,14.5-9.5,19.9,0l2.1,3.7c5.5,9.5,14.5,25.1,19.9,34.7l2.1,3.5c5.5,9.5,1,17.1-10,17.1
			h-4.1c-11,0-29,0-40,0h-4.1c-11,0-15.5-7.6-10-17.1l2.1-3.6c5.5-9.5,14.5-25.1,19.9-34.6L216.6,32.4z"/>
	</g>
	<g>
		<path fill="#4C4C4C" d="M93.1,7.2c5.5-9.5,14.5-9.5,19.9,0l7.4,12.8c5.5,9.5,14.5,25.1,19.9,34.7l7.4,12.6c5.5,9.5,1,17.1-10,17.1
			h-14.6c-11,0-29,0-40,0H68.5c-11,0-15.5-7.6-10-17.1l7.4-12.7c5.5-9.5,14.5-25.1,19.9-34.6L93.1,7.2z"/>
	</g>
	<g>
		<path fill="#4C4C4C" d="M123.1,29.2c5.5-9.5,14.5-9.5,19.9,0l7.4,12.8c5.5,9.5,14.5,25.1,19.9,34.7l7.4,12.6
			c5.5,9.5,1,17.1-10,17.1h-14.6c-11,0-29,0-40,0H98.5c-11,0-15.5-7.6-10-17.1l7.4-12.7c5.5-9.5,14.5-25.1,19.9-34.6L123.1,29.2z"/>
	</g>
	<g>
		<path fill="#4C4C4C" d="M154.1,43.2c5.5-9.5,14.5-9.5,19.9,0l7.4,12.8c5.5,9.5,14.5,25.1,19.9,34.7l7.4,12.6
			c5.5,9.5,1,17.1-10,17.1h-14.6c-11,0-29,0-40,0h-14.6c-11,0-15.5-7.6-10-17.1l7.4-12.7c5.5-9.5,14.5-25.1,19.9-34.6L154.1,43.2z"
			/>
	</g>
	<g>
		<polygon fill="#FFFFFF" points="244.4,73.8 247.9,80.1 251.5,86.4 244.4,86.4 237.3,86.4 240.8,80.1 		"/>
		<polygon fill="#FFFFFF" points="244.4,78.2 248.9,85.8 253.4,93.4 244.4,93.4 235.3,93.4 239.8,85.8 		"/>
		<polygon fill="#FFFFFF" points="244.4,83.2 250.1,92.8 255.7,102.4 244.4,102.4 233,102.4 238.7,92.8 		"/>
		<rect x="243.1" y="101.4" fill="#FFFFFF" width="3" height="6"/>
	</g>
	<g>
		<polygon fill="#FFFFFF" points="205.4,98.8 208.9,105.1 212.5,111.4 205.4,111.4 198.3,111.4 201.8,105.1 		"/>
		<polygon fill="#FFFFFF" points="205.4,103.2 209.9,110.8 214.4,118.4 205.4,118.4 196.3,118.4 200.8,110.8 		"/>
		<polygon fill="#FFFFFF" points="205.4,108.2 211.1,117.8 216.7,127.4 205.4,127.4 194,127.4 199.7,117.8 		"/>
		<rect x="204.1" y="126.4" fill="#FFFFFF" width="3" height="6"/>
	</g>
	<g>
		<polygon fill="#FFFFFF" points="236.4,108.8 239.9,115.1 243.5,121.4 236.4,121.4 229.3,121.4 232.8,115.1 		"/>
		<polygon fill="#FFFFFF" points="236.4,113.2 240.9,120.8 245.4,128.4 236.4,128.4 227.3,128.4 231.8,120.8 		"/>
		<polygon fill="#FFFFFF" points="236.4,118.2 242.1,127.8 247.7,137.4 236.4,137.4 225,137.4 230.7,127.8 		"/>
		<rect x="235.1" y="136.4" fill="#FFFFFF" width="3" height="6"/>
	</g>
	<g>
		<polygon fill="#FFFFFF" points="78.4,93.8 81.9,100.1 85.5,106.4 78.4,106.4 71.3,106.4 74.8,100.1 		"/>
		<polygon fill="#FFFFFF" points="78.4,98.2 82.9,105.8 87.4,113.4 78.4,113.4 69.3,113.4 73.8,105.8 		"/>
		<polygon fill="#FFFFFF" points="78.4,103.2 84.1,112.8 89.7,122.4 78.4,122.4 67,122.4 72.7,112.8 		"/>
		<rect x="77.1" y="121.4" fill="#FFFFFF" width="3" height="6"/>
	</g>
	<g>
		<polygon fill="#FFFFFF" points="51.4,105.8 54.9,112.1 58.5,118.4 51.4,118.4 44.3,118.4 47.8,112.1 		"/>
		<polygon fill="#FFFFFF" points="51.4,110.2 55.9,117.8 60.4,125.4 51.4,125.4 42.3,125.4 46.8,117.8 		"/>
		<polygon fill="#FFFFFF" points="51.4,115.2 57.1,124.8 62.7,134.4 51.4,134.4 40,134.4 45.7,124.8 		"/>
		<rect x="50.1" y="133.4" fill="#FFFFFF" width="3" height="6"/>
	</g>
	<g>
		<polygon fill="#FFFFFF" points="105.4,121.8 108.9,128.1 112.5,134.4 105.4,134.4 98.3,134.4 101.8,128.1 		"/>
		<polygon fill="#FFFFFF" points="105.4,126.2 109.9,133.8 114.4,141.4 105.4,141.4 96.3,141.4 100.8,133.8 		"/>
		<polygon fill="#FFFFFF" points="105.4,131.2 111.1,140.8 116.7,150.4 105.4,150.4 94,150.4 99.7,140.8 		"/>
		<rect x="104.1" y="149.4" fill="#FFFFFF" width="3" height="6"/>
	</g>
	<g>
		<polygon fill="#FFFFFF" points="173.4,92.8 176.9,99.1 180.5,105.4 173.4,105.4 166.3,105.4 169.8,99.1 		"/>
		<polygon fill="#FFFFFF" points="173.4,97.2 177.9,104.8 182.4,112.4 173.4,112.4 164.3,112.4 168.8,104.8 		"/>
		<polygon fill="#FFFFFF" points="173.4,102.2 179.1,111.8 184.7,121.4 173.4,121.4 162,121.4 167.7,111.8 		"/>
		<rect x="172.1" y="120.4" fill="#FFFFFF" width="3" height="6"/>
	</g>
	<g>
		<polygon fill="#FFFFFF" points="11.4,97.8 14.9,104.1 18.5,110.4 11.4,110.4 4.3,110.4 7.8,104.1 		"/>
		<polygon fill="#FFFFFF" points="11.4,102.2 15.9,109.8 20.4,117.4 11.4,117.4 2.3,117.4 6.8,109.8 		"/>
		<polygon fill="#FFFFFF" points="11.4,107.2 17.1,116.8 22.7,126.4 11.4,126.4 0,126.4 5.7,116.8 		"/>
		<rect x="10.1" y="125.4" fill="#FFFFFF" width="3" height="6"/>
	</g>
	<g>
		<polygon fill="#FFFFFF" points="140.4,107.8 143.9,114.1 147.5,120.4 140.4,120.4 133.3,120.4 136.8,114.1 		"/>
		<polygon fill="#FFFFFF" points="140.4,112.2 144.9,119.8 149.4,127.4 140.4,127.4 131.3,127.4 135.8,119.8 		"/>
		<polygon fill="#FFFFFF" points="140.4,117.2 146.1,126.8 151.7,136.4 140.4,136.4 129,136.4 134.7,126.8 		"/>
		<rect x="139.1" y="135.4" fill="#FFFFFF" width="3" height="6"/>
	</g>
</g>
</svg>
