<?xml version="1.0" encoding="utf-8"?>
<!-- Generator: Adobe Illustrator 18.1.1, SVG Export Plug-In . SVG Version: 6.00 Build 0)  -->
<svg version="1.1" id="Layer_1" xmlns="http://www.w3.org/2000/svg" xmlns:xlink="http://www.w3.org/1999/xlink" x="0px" y="0px"
	 viewBox="0 0 214.3 40.8" enable-background="new 0 0 214.3 40.8" xml:space="preserve">
<g>
	<path fill="#FFFFFF" d="M108.9,25.5c0.1,0.1,0.2,0.1,0.3,0.1c0.2,0,0.3-0.1,0.4-0.2c0.1-0.1,2.5-3.3,2.5-7.1c0-1.7-0.8-4.2-1.8-7.1
		c-1.1-3.3-2.4-7.1-2.7-10.7c0-0.3-0.3-0.5-0.6-0.5s-0.5,0.2-0.6,0.5c-0.3,3.6-1.6,7.4-2.7,10.7c-1,2.9-1.8,5.3-1.8,7.1
		c0,3.7,2.1,6.7,2.2,6.9c0.2,0.2,0.5,0.3,0.8,0.1c0.3-0.2,0.3-0.5,0.1-0.8c0,0-2-2.8-2-6.2c0-1.6,0.8-4,1.7-6.7
		c0.8-2.3,1.6-4.8,2.2-7.4c0.6,2.6,1.4,5.1,2.2,7.4c0.9,2.8,1.7,5.2,1.7,6.7c0,3.4-2.2,6.4-2.2,6.4
		C108.6,24.9,108.6,25.3,108.9,25.5z"/>
	<path fill="#FFFFFF" d="M125.3,36.6c0.3,0,0.6-0.2,0.6-0.6c0-0.3-0.2-0.6-0.6-0.6c-5.7,0-8.2-2.3-10.4-4.3
		c-1.8-1.6-3.5-3.2-6.4-3.2c-0.2,0-0.4,0.1-0.5,0.4c-0.1,0.2,0,0.5,0.1,0.6c0,0,1.4,1.3,1.4,2.6c0,0.6-0.5,1.6-1.1,2.7
		c-0.4,0.9-0.9,1.8-1.3,2.8c-0.4-1-0.8-1.9-1.3-2.8c-0.5-1.1-1.1-2.1-1.1-2.7c0-1.3,1.4-2.6,1.4-2.6c0.2-0.2,0.2-0.4,0.1-0.6
		c-0.1-0.2-0.3-0.4-0.5-0.4c-3,0-4.6,1.5-6.4,3.2c-2.2,2-4.7,4.3-10.4,4.3c-0.3,0-0.6,0.2-0.6,0.6c0,0.3,0.2,0.6,0.6,0.6
		c6.1,0,8.9-2.5,11.2-4.6c1.4-1.3,2.6-2.4,4.4-2.7c-0.4,0.6-0.8,1.4-0.8,2.3c0,0.8,0.5,1.9,1.2,3.2c0.7,1.4,1.5,3,1.7,4.5
		c0,0,0,0,0,0.1c0,0.2,0,0.7,0.1,0.9c0.1,0.1,0.3,0.6,0.4,0.6h0c0.2,0,0.3-0.5,0.4-0.6c0.1-0.1,0.2-0.5,0.1-0.6c0,0,0-0.1,0-0.2
		c0.2-1.5,1-3.2,1.7-4.6c0.6-1.3,1.2-2.4,1.2-3.2c0-0.9-0.4-1.7-0.8-2.3c1.8,0.4,3,1.5,4.4,2.7C116.3,34,119.1,36.6,125.3,36.6z"/>
	<path fill="#FFFFFF" d="M199.9,30.5c0,0.3,0.3,0.5,0.6,0.5c0.3,0,0.5-0.3,0.5-0.6c-0.8-7,2.5-7.9,6.3-8.9c2.2-0.6,4.4-1.1,5.9-2.9
		c-0.1,5-1.2,8.8-3.5,11.2c-2.3,2.4-4.9,2.4-5,2.4c-0.3,0-0.6,0.2-0.6,0.6c0,0.3,0.2,0.6,0.6,0.6c0.1,0,3.1,0,5.7-2.8
		c2.8-2.9,4-7.5,3.8-13.7c0-0.3-0.2-0.5-0.4-0.5c-0.2-0.1-0.5,0.1-0.6,0.3c-1.2,2.5-3.7,3.1-6.2,3.8C203.2,21.4,199,22.5,199.9,30.5
		z"/>
	<path fill="#FFFFFF" d="M155.3,20.2c-0.3,0.1-0.4,0.4-0.4,0.7c0.1,0.3,0.3,0.4,0.5,0.4c0,0,0.1,0,0.1,0c3.3-0.5,5.4-1.6,6.4-3.4
		c1.1-2.1,0.7-3.9-1.1-4.9c-0.5-0.3-1-0.4-1.5-0.4c-1.1,0-2.2,0.6-2.7,1.5c-0.5,1-0.3,1.8-0.3,1.9c0,0.2,0.1,0.3,0.3,0.4
		c0.2,0.1,0.3,0.1,0.5,0c0.3-0.2,0.6-0.2,0.8-0.2c0.2,0,0.3,0,0.3,0c0,0,0.8,0.5,0.1,1.8C157.4,19.4,155.3,20.2,155.3,20.2z
		 M157.9,15c-0.1,0-0.3,0-0.4,0c0-0.2,0.1-0.3,0.2-0.5c0.2-0.4,0.9-0.9,1.7-0.9c0.3,0,0.7,0.1,1,0.3c1.2,0.7,1.5,1.9,0.7,3.5
		c-0.4,0.9-1.2,1.5-2.4,2c0.3-0.3,0.5-0.6,0.7-1c0.5-1.1,0.4-1.8,0.3-2.3c-0.2-0.5-0.6-0.8-0.8-1C158.5,15,158.2,15,157.9,15z"/>
	<path fill="#FFFFFF" d="M183.1,33.7c1.3,0.4,3,0.8,4.7,0.8c1.8,0,3.7-0.4,5.4-1.4c3-1.8,4-4.4,4.2-5.2c0.8-2.7,0.2-7.3-4.9-8.9
		c-3.7-1.1-6.2,1-6.8,3c-0.3,1-0.3,2,0.1,2.9c0.4,0.9,1.2,1.6,2.2,1.9c1.1,0.3,2.2,0.3,3-0.2c0.6-0.3,1-0.9,1.1-1.5
		c0.1-0.3-0.1-0.6-0.4-0.7c-0.3-0.1-0.6,0.1-0.7,0.4c-0.1,0.4-0.3,0.6-0.6,0.8c-0.5,0.3-1.3,0.3-2.1,0.1c-0.7-0.2-1.2-0.7-1.5-1.3
		c-0.3-0.6-0.3-1.4-0.1-2.1c0.4-1.4,2.3-3.2,5.4-2.2c4.7,1.4,4.8,5.6,4.2,7.5c-0.4,1.4-1.6,3.3-3.7,4.6c-2.5,1.5-5.6,1.7-9.2,0.6
		c-2.5-0.8-5.1-2.8-8.1-5.2c-1.8-1.4-3.6-2.8-5.5-4.1c-0.3-0.2-0.6-0.4-0.9-0.6c0,0-0.1-0.1-0.1-0.1c0,0-0.1,0-0.1-0.1
		c-1.5-0.8-3.6-1.2-5.9-1.2c-4.5,0-9.3,1.3-13.9,3c0.7-0.9,1.2-1.9,1.4-2.9c0.4-1.6,0-3.3-0.9-4.5c-1.7-2.2-4.3-2.9-6.3-1.6
		c-3.1,2-1.6,4.8-1.6,4.9c0.1,0.3,0.5,0.4,0.7,0.2c0.3-0.1,0.4-0.5,0.2-0.7c0-0.1-1-2,1.2-3.4c1.3-0.8,3.3-0.7,4.8,1.3
		c0.7,1,1,2.3,0.7,3.6c-0.4,1.7-1.6,3.3-3.4,4.3c-0.3,0.1-0.6,0.3-1,0.4c-0.3,0.1-0.7,0.2-1,0.4c-0.8,0.3-1.6,0.7-2.4,1
		c-3.9,1.6-7.6,3.2-10.8,4c-0.9-0.8-1.4-1.9-1.4-3c0-1,0.4-2,1.1-2.7c0.8-0.8,2-1.2,3.4-1.2c0.3,0,0.6-0.2,0.6-0.6
		c0-0.3-0.2-0.6-0.6-0.6c-1.7,0-3.2,0.5-4.2,1.5c-0.9,0.9-1.4,2.1-1.4,3.5c0,1.2,0.4,2.4,1.2,3.3c-1,0.2-2,0.3-3,0.3
		c-8.6,0-10.9-5.7-10.9-8.7c0-2.1,1.3-6,6.2-6c3.3,0,4.5,2.3,4.5,3.7c0,1.6-0.9,2.5-2.4,2.5c-1.4,0-2.3-1.1-2.4-1.6
		c-0.1-0.3-0.4-0.5-0.7-0.4c-0.3,0.1-0.5,0.4-0.4,0.7c0.2,1,1.5,2.5,3.5,2.5c2.1,0,3.5-1.5,3.5-3.6c0-1.1-0.5-2.3-1.4-3.2
		c-0.7-0.7-2.1-1.6-4.2-1.6c-5.4,0-7.3,4.2-7.3,7.1c0,0.8,0.2,3.6,2.5,6.2c1.5,1.6,4.4,3.6,9.5,3.6c1.2,0,2.5-0.2,4-0.5
		c0.9,0.7,2.2,1.1,3.7,1.1c6,0,11.4-2.4,16.2-4.5c4-1.8,7.8-3.4,11.3-3.4c3.5,0,4.8,1.1,4.8,1.1c0.2,0.2,0.6,0.2,0.8,0
		c0.2-0.2,0.2-0.6,0-0.8c-0.1-0.1-1.6-1.4-5.6-1.4c-3.8,0-7.7,1.7-11.8,3.5c-4.9,2.1-9.9,4.4-15.7,4.4c-0.8,0-1.5-0.1-2.1-0.4
		c3.1-0.9,6.5-2.3,10-3.8c1.1-0.5,2.3-1,3.4-1.4c0,0,0,0,0,0c0.3-0.1,0.7-0.2,1-0.4c5.5-2.2,11.3-4.1,16.6-4.1
		c2.2,0,4.1,0.4,5.4,1.1c0,0,0,0,0,0c0.4,0.2,0.7,0.5,1.1,0.7c1.1,0.9,1.6,2.1,1.6,3.5c0,3.5-2,4.8-3.9,4.8c-3.3,0-3.7-2.5-3.7-2.6
		c0-0.3-0.3-0.5-0.6-0.5c-0.3,0-0.5,0.3-0.5,0.6c0.2,1.2,1.4,3.5,4.8,3.5c1.4,0,2.6-0.5,3.5-1.4c1-1,1.6-2.6,1.6-4.4
		c0-0.6-0.1-1.2-0.3-1.7c1,0.7,1.9,1.5,2.8,2.2C177.8,30.8,180.4,32.9,183.1,33.7z"/>
	<path fill="#FFFFFF" d="M209.2,24.7c0.2-0.2,0.1-0.6-0.1-0.8c-0.2-0.2-0.6-0.1-0.8,0.1c-7,9.9-14.4,12.3-19.4,12.5
		c-5.6,0.3-10.8-1.9-14.5-6c-0.2-0.2-0.6-0.2-0.8,0c-0.2,0.2-0.2,0.6,0,0.8c3.7,4.1,8.8,6.4,14.3,6.4c0.4,0,0.7,0,1.1,0
		C194.2,37.4,202,35,209.2,24.7z"/>
	<path fill="#FFFFFF" d="M64.7,28.3c-4.1-1.8-8-3.5-11.8-3.5c-4,0-5.5,1.4-5.6,1.4c-0.2,0.2-0.2,0.6,0,0.8c0.2,0.2,0.6,0.2,0.8,0
		c0,0,1.3-1.1,4.8-1.1c3.5,0,7.3,1.7,11.3,3.4c4.8,2.1,10.2,4.5,16.2,4.5c1.5,0,2.8-0.4,3.7-1.1c1.4,0.3,2.7,0.5,4,0.5
		c5.1,0,8-2,9.5-3.6c2.3-2.6,2.5-5.4,2.5-6.2c0-2.8-1.9-7.1-7.3-7.1c-2.2,0-3.5,0.9-4.2,1.6c-0.9,0.9-1.4,2.1-1.4,3.2
		c0,2.2,1.4,3.6,3.5,3.6c1.9,0,3.2-1.5,3.5-2.5c0.1-0.3-0.1-0.6-0.4-0.7c-0.3-0.1-0.6,0.1-0.7,0.4c-0.1,0.5-1,1.6-2.4,1.6
		c-1.5,0-2.4-1-2.4-2.5c0-1.4,1.2-3.7,4.5-3.7c4.9,0,6.2,3.9,6.2,6c0,3-2.3,8.7-10.9,8.7c-0.9,0-1.9-0.1-3-0.3
		c0.8-1,1.2-2.1,1.2-3.3c0-1.3-0.5-2.6-1.4-3.5c-1-1-2.5-1.5-4.2-1.5c-0.3,0-0.6,0.2-0.6,0.6c0,0.3,0.2,0.6,0.6,0.6
		c1.4,0,2.6,0.4,3.4,1.2c0.7,0.7,1.1,1.6,1.1,2.7c0,1.1-0.4,2.2-1.4,3c-3.2-0.8-7-2.4-10.8-4c-0.8-0.3-1.6-0.7-2.4-1
		c-0.3-0.2-0.7-0.3-1-0.4c-0.3-0.1-0.6-0.3-1-0.4c-1.8-1-3.1-2.6-3.4-4.3c-0.3-1.3,0-2.7,0.7-3.6c1.5-2,3.5-2.1,4.8-1.3
		c2.2,1.4,1.3,3.2,1.2,3.4c-0.1,0.3,0,0.6,0.2,0.7c0.3,0.1,0.6,0,0.7-0.2c0,0,1.5-2.9-1.6-4.9c-2.1-1.3-4.7-0.6-6.3,1.6
		c-0.9,1.2-1.2,2.9-0.9,4.5c0.2,1,0.7,2,1.4,2.9c-4.7-1.7-9.5-3-13.9-3c-2.4,0-4.4,0.4-5.9,1.2c0,0-0.1,0-0.1,0.1
		c0,0-0.1,0.1-0.1,0.1c-0.3,0.2-0.6,0.4-0.9,0.6c-2,1.3-3.8,2.8-5.5,4.1c-3,2.4-5.6,4.4-8.1,5.2c-3.6,1.1-6.7,0.9-9.2-0.6
		c-2.1-1.2-3.3-3.2-3.7-4.6c-0.6-2-0.5-6.1,4.2-7.5c3.1-1,5,0.8,5.4,2.2c0.2,0.7,0.2,1.5-0.1,2.1c-0.3,0.6-0.8,1.1-1.5,1.3
		c-0.8,0.2-1.5,0.2-2.1-0.1c-0.3-0.2-0.5-0.5-0.6-0.8c-0.1-0.3-0.4-0.5-0.7-0.4c-0.3,0.1-0.5,0.4-0.4,0.7c0.1,0.7,0.5,1.2,1.1,1.5
		c0.8,0.5,1.9,0.5,3,0.2c1-0.3,1.8-1,2.2-1.9c0.4-0.9,0.4-1.9,0.1-2.9c-0.3-1.1-1.2-2.1-2.3-2.7c-0.9-0.5-2.4-0.9-4.5-0.3
		c-5.1,1.6-5.7,6.2-4.9,8.9c0.2,0.8,1.2,3.4,4.2,5.2c1.8,1,3.7,1.4,5.4,1.4c1.7,0,3.4-0.3,4.7-0.8c2.7-0.8,5.4-2.9,8.4-5.4
		c0.9-0.7,1.8-1.5,2.8-2.2c-0.2,0.5-0.3,1.1-0.3,1.7c0,1.9,0.5,3.4,1.6,4.4c0.9,0.9,2.1,1.4,3.5,1.4c3.5,0,4.7-2.3,4.8-3.5
		c0-0.3-0.2-0.6-0.5-0.6c-0.3,0-0.6,0.2-0.6,0.5c0,0-0.1,0.6-0.6,1.3c-0.7,0.9-1.7,1.3-3.2,1.3c-1.9,0-3.9-1.2-3.9-4.8
		c0-1.4,0.6-2.6,1.6-3.5c0.4-0.2,0.7-0.5,1.1-0.7c0,0,0,0,0,0c1.4-0.7,3.2-1.1,5.4-1.1c5.3,0,11.1,1.9,16.6,4.1
		c0.3,0.2,0.7,0.3,1,0.4c0,0,0,0,0,0c1.2,0.5,2.3,1,3.4,1.4c3.5,1.5,6.9,2.9,10,3.8c-0.6,0.2-1.3,0.4-2.1,0.4
		C74.6,32.6,69.5,30.4,64.7,28.3z"/>
	<path fill="#FFFFFF" d="M9.6,33.3c0.3,0,0.6-0.2,0.6-0.6c0-0.3-0.2-0.6-0.6-0.6c0,0-2.7,0-5-2.4c-2.3-2.4-3.4-6.1-3.5-11.2
		c1.5,1.7,3.8,2.3,5.9,2.9c3.8,1,7.1,1.8,6.3,8.9c0,0.3,0.2,0.6,0.5,0.6c0.3,0,0.6-0.2,0.6-0.5c0.9-8-3.4-9.1-7.1-10.1
		c-2.6-0.7-5-1.3-6.2-3.8c-0.1-0.2-0.4-0.4-0.6-0.3C0.2,16.4,0,16.6,0,16.8c-0.2,6.3,1.1,10.9,3.8,13.7C6.5,33.3,9.5,33.3,9.6,33.3z
		"/>
	<path fill="#FFFFFF" d="M56.1,16.1c0,0,0.1,0,0.3,0c0.2,0,0.5,0,0.8,0.2c0.2,0.1,0.3,0.1,0.5,0c0.2-0.1,0.3-0.2,0.3-0.4
		c0-0.1,0.2-0.9-0.3-1.9c-0.5-0.9-1.6-1.5-2.7-1.5c-0.5,0-1.1,0.1-1.5,0.4c-1.8,1-2.2,2.9-1.1,4.9c1,1.9,3,3,6.4,3.4
		c0,0,0.1,0,0.1,0c0.3,0,0.5-0.2,0.5-0.4c0.1-0.3-0.1-0.6-0.4-0.7c0,0-2.2-0.8-3-2.3C55.4,16.6,56.1,16.1,56.1,16.1z M55.1,18.4
		c0.2,0.4,0.4,0.7,0.7,1c-1.2-0.5-2-1.2-2.4-2c-0.8-1.6-0.6-2.8,0.7-3.5c0.3-0.2,0.6-0.3,1-0.3c0.8,0,1.4,0.5,1.7,0.9
		c0.1,0.2,0.2,0.4,0.2,0.5c-0.2,0-0.3,0-0.4,0c-0.3,0-0.6,0.1-0.8,0.2c-0.3,0.1-0.6,0.5-0.8,1C54.6,16.6,54.5,17.4,55.1,18.4z"/>
	<path fill="#FFFFFF" d="M26.3,37.8c5.5,0,10.7-2.3,14.3-6.4c0.2-0.2,0.2-0.6,0-0.8c-0.2-0.2-0.6-0.2-0.8,0c-3.7,4.1-9,6.3-14.5,6
		c-5-0.3-12.4-2.7-19.4-12.5c-0.2-0.2-0.5-0.3-0.8-0.1c-0.2,0.2-0.3,0.5-0.1,0.8c7.3,10.2,15,12.7,20.2,13
		C25.6,37.8,26,37.8,26.3,37.8z"/>
</g>
</svg>
